<?xml version="1.0" standalone="yes"?>
<svg xmlns="http://www.w3.org/2000/svg" width="534" height="830">
<path style="fill:#000000; stroke:none;" d="M0 0L0 830L534 830L534 0L0 0z"/>
<path style="fill:#52517d; stroke:none;" d="M253 438L260 435C260.003 462.695 260.664 490.461 261.917 518.015C262.446 529.638 260.787 541.36 262.184 553C262.792 558.058 264.717 562.957 265.565 568C267.46 579.276 268.375 590.822 270.666 602C275.748 626.791 286.703 649.173 294.645 673C299.493 687.545 301.856 702.875 304.001 718C305.049 725.394 307.397 732.501 307.91 740C308.598 750.037 306.753 759.872 307.7 770C308.269 776.086 305.736 782.043 308.228 788C313.698 801.073 333.511 804.434 342.486 792.895C350.243 782.922 343.962 768.833 339.719 759C329.942 736.339 325.464 712.429 322.282 688C320.549 674.7 318.626 661.391 318.039 648C317.201 628.861 317.564 609.9 313.8 591C311.548 579.688 308.008 568.726 303.797 558C300.392 549.328 296.029 540.526 296.029 531C296.029 519.958 300.133 508.755 302.195 498C307.335 471.195 314.587 444.317 322 418C323.824 418.246 325.217 418.49 327.024 417.915C338.397 414.296 331.216 404.931 331.574 397C331.717 393.846 333.713 391.223 333.592 388C333.357 381.788 330.914 375.002 329.37 369C325.933 355.633 322.049 342.719 316.667 330C314.46 324.785 309.993 318.672 309.514 313C309.258 309.973 310.506 306.985 310.826 304C312.297 290.3 318.506 279.187 322.291 266C326.054 252.889 330.497 239.288 333.331 226C334.177 222.033 333.617 217.926 334.609 214C336.739 205.565 341.07 196.899 340.917 188C340.677 174.034 321.653 176.564 313.019 171.836C306.173 168.086 304.531 156.074 305.171 149C306.713 131.927 307.829 114.942 310.271 98C311.439 89.8928 314.449 77.9854 311.106 70.1049C309.262 65.7568 304.305 65.9283 301.618 62.5818C299.578 60.0401 300.988 56.9034 300.338 54.0046C298.997 48.0276 292.292 46.4782 287 46.0903C272.871 45.0546 254.576 49.5016 243 57.7886C235.278 63.3162 229.157 70.7979 223.08 77.9606C217.798 84.1867 207.742 94.8942 209.666 103.985C211.635 113.29 223.363 110.935 228.397 116.513C230.418 118.753 230.104 122.3 231.147 125C232.216 127.766 234.514 130.07 235.123 133C235.725 135.896 234.5 139.084 234.367 142C234.078 148.342 236.894 157.917 232.976 163.57C231.162 166.188 226.876 166.808 224 167.525C215.865 169.552 205.02 169.323 200.966 178.004C196.189 188.233 201.814 197.59 202.823 208C204.226 222.489 204.735 237.565 207.665 252C210.773 267.31 216.952 284.216 214.471 300C213.365 307.031 208.05 313.412 205.464 320C197.73 339.701 186.341 358.698 182.863 380C182.423 382.701 183.351 385.306 183.032 388C182.51 392.404 179.483 396.52 179.554 400.996C179.664 407.961 189.346 409.867 190.74 417.001C194.636 436.946 196.915 457.175 201.895 477C206.065 493.598 212.752 509.48 217.116 526C220.34 538.207 224.025 551.373 224.91 564C225.841 577.27 223.908 590.755 225.17 604C227.153 624.828 232.319 644.056 238.23 664C242.449 678.237 243.083 693.321 244.09 708C244.945 720.479 246.441 733.658 243.572 746C239.736 762.5 221.804 777.734 234.61 793.957C244.029 805.89 263.058 800.746 269.08 788C271.67 782.519 269.882 776.804 270.015 771C270.286 759.157 270.979 747.877 270.24 736C269.636 726.292 267.752 716.648 267.091 707C266.813 702.935 267.952 699.034 267.872 695C267.65 683.813 267.146 672.194 267.456 661C267.915 644.387 271.063 627.734 269.91 611C268.446 589.735 257.302 570.479 256.452 549C255.457 523.844 254.029 499.148 253.101 474C252.677 462.509 256.301 449.167 253 438z"/>
</svg>
