<svg id="svg" version="1.1" xmlns="http://www.w3.org/2000/svg" xmlns:xlink="http://www.w3.org/1999/xlink" width="400" height="621.7228464419476" viewBox="0, 0, 400,621.7228464419476"><g id="svgg"><path id="path0" d="M207.200 36.000 C 207.200 36.220,206.390 36.400,205.400 36.400 C 204.410 36.400,203.600 36.576,203.600 36.790 C 203.600 37.037,203.201 37.028,202.508 36.765 C 201.745 36.475,201.374 36.478,201.275 36.775 C 201.197 37.009,200.418 37.200,199.543 37.200 C 198.585 37.200,198.051 37.359,198.200 37.600 C 198.344 37.833,197.937 38.000,197.224 38.000 C 196.551 38.000,196.000 38.144,196.000 38.320 C 196.000 38.496,195.345 38.563,194.545 38.470 C 193.536 38.352,193.176 38.438,193.369 38.750 C 193.547 39.039,193.280 39.200,192.624 39.200 C 192.061 39.200,191.597 39.425,191.594 39.700 C 191.590 40.033,191.458 40.000,191.200 39.600 C 190.942 39.200,190.810 39.167,190.806 39.500 C 190.803 39.775,190.440 40.000,190.000 40.000 C 189.560 40.000,189.200 40.180,189.200 40.400 C 189.200 40.620,188.615 40.803,187.900 40.806 C 186.914 40.811,186.745 40.906,187.200 41.200 C 187.668 41.502,187.557 41.589,186.700 41.594 C 186.095 41.597,185.600 41.780,185.600 42.000 C 185.600 42.220,185.195 42.403,184.700 42.406 C 183.972 42.411,183.915 42.486,184.400 42.800 C 184.851 43.091,184.652 43.191,183.600 43.200 C 182.548 43.209,182.349 43.309,182.800 43.600 C 183.288 43.916,183.238 43.989,182.529 43.994 C 182.049 43.997,181.387 44.270,181.057 44.600 C 180.727 44.930,180.276 45.200,180.056 45.200 C 179.835 45.200,179.540 45.560,179.400 46.000 C 179.260 46.440,178.970 46.800,178.755 46.800 C 178.240 46.800,176.400 48.650,176.400 49.168 C 176.400 49.390,175.995 49.783,175.500 50.040 C 175.005 50.297,174.044 51.069,173.365 51.754 C 172.686 52.439,171.696 53.380,171.165 53.844 C 169.730 55.098,168.242 56.935,168.220 57.478 C 168.209 57.741,167.525 58.576,166.700 59.332 C 165.875 60.089,165.200 60.919,165.200 61.178 C 165.200 61.436,165.020 61.536,164.800 61.400 C 164.580 61.264,164.400 61.349,164.400 61.590 C 164.400 61.830,163.770 62.657,163.000 63.427 C 162.230 64.197,161.600 65.141,161.600 65.525 C 161.600 65.909,161.240 66.483,160.800 66.800 C 160.360 67.117,160.000 67.567,160.000 67.800 C 160.000 68.033,159.640 68.483,159.200 68.800 C 158.760 69.117,158.400 69.697,158.400 70.088 C 158.400 70.480,158.220 70.800,158.000 70.800 C 157.780 70.800,157.600 71.160,157.600 71.600 C 157.600 72.040,157.409 72.400,157.176 72.400 C 156.943 72.400,156.869 72.588,157.011 72.818 C 157.153 73.047,157.012 73.632,156.697 74.118 C 156.382 74.603,156.157 75.405,156.196 75.900 C 156.235 76.395,156.155 76.800,156.018 76.800 C 155.613 76.800,155.559 79.127,155.958 79.374 C 156.160 79.499,156.231 79.961,156.116 80.400 C 156.001 80.840,156.096 81.200,156.326 81.200 C 156.557 81.200,156.859 81.556,156.997 81.992 C 157.136 82.427,157.396 82.742,157.575 82.692 C 157.754 82.641,158.462 83.095,159.147 83.700 C 159.832 84.305,160.755 84.800,161.197 84.800 C 161.638 84.800,162.000 84.980,162.000 85.200 C 162.000 85.420,162.360 85.600,162.800 85.600 C 163.240 85.600,163.600 85.780,163.600 86.000 C 163.600 86.220,164.151 86.400,164.824 86.400 C 165.537 86.400,165.944 86.567,165.800 86.800 C 165.653 87.039,166.137 87.200,167.000 87.200 C 167.863 87.200,168.347 87.361,168.200 87.600 C 168.050 87.842,168.604 88.000,169.600 88.000 C 170.604 88.000,171.150 88.157,170.998 88.403 C 170.861 88.624,171.031 88.914,171.375 89.046 C 171.842 89.225,171.984 89.805,171.937 91.343 L 171.874 93.400 171.577 91.400 L 171.281 89.400 171.412 91.400 C 171.628 94.697,172.047 96.038,173.207 97.146 C 173.813 97.726,174.328 98.380,174.351 98.600 C 174.375 98.820,174.665 99.317,174.997 99.705 C 175.673 100.495,175.817 102.400,175.200 102.400 C 174.980 102.400,174.800 103.210,174.800 104.200 C 174.800 105.190,174.614 106.000,174.387 106.000 C 174.161 106.000,174.017 106.630,174.069 107.400 C 174.121 108.170,174.307 108.800,174.482 108.800 C 174.657 108.800,174.800 109.160,174.800 109.600 C 174.800 110.040,174.620 110.400,174.400 110.400 C 173.806 110.400,173.915 113.032,174.530 113.542 C 175.165 114.069,175.004 119.227,174.339 119.638 C 174.108 119.780,173.960 120.775,174.011 121.849 C 174.169 125.199,174.043 125.338,170.413 125.798 C 169.211 125.951,167.894 126.309,167.488 126.594 C 167.081 126.879,166.381 127.016,165.933 126.898 C 165.467 126.777,164.967 126.924,164.765 127.243 C 164.470 127.708,164.410 127.701,164.400 127.200 C 164.391 126.756,164.306 126.728,164.074 127.094 C 163.902 127.365,162.922 127.619,161.896 127.658 C 160.871 127.697,160.126 127.880,160.240 128.064 C 160.426 128.366,158.577 128.596,157.300 128.430 C 157.025 128.394,156.800 128.553,156.800 128.782 C 156.800 129.012,156.350 129.200,155.800 129.200 C 155.250 129.200,154.800 129.410,154.800 129.667 C 154.800 129.923,154.685 130.018,154.544 129.877 C 153.843 129.177,151.264 131.268,150.199 133.400 C 149.760 134.280,149.265 135.060,149.100 135.133 C 148.935 135.207,148.800 135.982,148.800 136.857 C 148.800 137.815,148.641 138.349,148.400 138.200 C 148.180 138.064,148.000 138.323,148.000 138.776 C 148.000 139.229,147.820 139.600,147.600 139.600 C 147.380 139.600,147.200 140.104,147.200 140.720 C 147.200 141.936,148.016 143.992,148.500 143.997 C 148.665 143.999,148.800 144.720,148.800 145.600 C 148.800 146.480,148.961 147.200,149.157 147.200 C 149.353 147.200,149.529 148.284,149.548 149.609 C 149.567 150.934,149.760 152.351,149.977 152.757 C 150.194 153.163,150.286 153.581,150.181 153.686 C 150.076 153.791,150.295 154.580,150.667 155.439 C 151.379 157.077,151.627 159.520,151.151 160.200 C 150.581 161.015,150.324 163.506,150.780 163.788 C 151.029 163.942,151.124 164.408,150.992 164.825 C 150.842 165.297,151.062 165.914,151.576 166.466 C 152.029 166.953,152.400 167.688,152.400 168.099 C 152.400 168.511,152.558 168.750,152.750 168.631 C 153.132 168.395,152.321 171.012,151.874 171.459 C 151.304 172.029,151.633 173.734,152.448 174.442 C 153.220 175.111,153.290 175.551,153.229 179.353 C 153.189 181.903,153.326 183.630,153.581 183.788 C 153.812 183.931,154.000 184.451,154.000 184.944 C 154.000 185.437,154.225 186.082,154.500 186.379 C 154.900 186.810,154.900 186.861,154.500 186.635 C 153.881 186.286,153.782 189.418,154.400 189.800 C 154.620 189.936,154.800 190.667,154.800 191.424 C 154.800 192.181,154.962 192.800,155.160 192.800 C 155.481 192.800,155.683 193.868,156.105 197.804 C 156.176 198.466,156.344 199.186,156.478 199.404 C 156.612 199.622,156.778 200.520,156.847 201.400 C 156.915 202.280,157.140 203.118,157.347 203.262 C 157.554 203.406,157.707 204.114,157.687 204.834 C 157.666 205.555,157.820 206.463,158.027 206.851 C 158.235 207.240,158.442 208.062,158.486 208.679 C 158.530 209.295,158.699 209.894,158.861 210.010 C 159.023 210.125,159.189 211.880,159.230 213.910 C 159.272 215.939,159.461 217.600,159.653 217.600 C 159.844 217.600,160.000 218.125,160.000 218.767 C 160.000 219.408,160.225 220.024,160.500 220.135 C 160.900 220.296,160.900 220.343,160.500 220.368 C 160.174 220.389,160.000 221.068,160.000 222.320 C 160.000 223.376,159.775 224.478,159.500 224.770 C 159.100 225.194,159.100 225.337,159.500 225.483 C 160.294 225.774,160.090 227.759,159.200 228.400 C 158.760 228.717,158.400 229.297,158.400 229.688 C 158.400 230.080,158.265 230.401,158.100 230.403 C 157.741 230.407,156.800 232.344,156.800 233.080 C 156.800 233.366,156.609 233.600,156.376 233.600 C 156.143 233.600,156.056 233.768,156.183 233.972 C 156.309 234.177,156.230 234.458,156.007 234.596 C 155.783 234.734,155.600 235.163,155.600 235.548 C 155.600 235.934,155.240 236.636,154.800 237.108 C 154.360 237.580,154.000 238.244,154.000 238.583 C 154.000 238.922,153.820 239.200,153.600 239.200 C 153.380 239.200,153.200 239.560,153.200 240.000 C 153.200 240.440,153.020 240.800,152.800 240.800 C 152.580 240.800,152.400 241.304,152.400 241.920 C 152.400 242.536,152.175 243.282,151.900 243.579 C 151.496 244.014,151.507 244.056,151.962 243.797 C 152.377 243.560,152.432 243.623,152.173 244.038 C 151.980 244.347,151.782 244.867,151.733 245.193 C 151.684 245.519,151.454 245.849,151.222 245.926 C 150.990 246.003,150.800 246.382,150.800 246.767 C 150.800 247.152,150.665 247.602,150.500 247.767 C 150.335 247.932,150.188 248.187,150.174 248.333 C 150.107 248.999,148.579 252.000,148.306 252.000 C 148.138 252.000,148.000 252.281,148.000 252.624 C 148.000 252.967,147.820 253.136,147.600 253.000 C 147.380 252.864,147.200 253.123,147.200 253.576 C 147.200 254.029,147.020 254.400,146.800 254.400 C 146.580 254.400,146.400 254.670,146.400 255.000 C 146.400 255.330,146.220 255.600,146.000 255.600 C 145.780 255.600,145.600 256.050,145.600 256.600 C 145.600 257.150,145.440 257.600,145.245 257.600 C 144.941 257.600,144.534 258.972,144.327 260.700 C 144.294 260.975,144.117 261.200,143.933 261.200 C 143.750 261.200,143.600 261.470,143.600 261.800 C 143.600 262.130,143.420 262.400,143.200 262.400 C 142.980 262.400,142.800 262.929,142.800 263.576 C 142.800 264.223,142.620 264.864,142.400 265.000 C 142.180 265.136,142.000 265.687,142.000 266.224 C 142.000 266.761,141.820 267.200,141.600 267.200 C 141.380 267.200,141.200 267.650,141.200 268.200 C 141.200 268.750,141.020 269.200,140.800 269.200 C 140.580 269.200,140.400 269.391,140.400 269.624 C 140.400 269.857,140.563 269.946,140.763 269.823 C 140.962 269.700,140.917 270.048,140.663 270.596 C 140.408 271.145,140.065 271.595,139.900 271.597 C 139.735 271.599,139.600 272.014,139.600 272.520 C 139.600 273.026,139.375 273.682,139.100 273.979 C 138.693 274.417,138.712 274.455,139.200 274.182 C 139.716 273.894,139.723 273.941,139.255 274.518 C 138.956 274.888,138.807 275.440,138.924 275.746 C 139.041 276.052,138.978 276.462,138.782 276.658 C 138.587 276.853,138.383 277.595,138.328 278.307 C 138.274 279.018,138.088 279.600,137.915 279.600 C 137.742 279.600,137.600 280.140,137.600 280.800 C 137.600 281.460,137.459 282.000,137.287 282.000 C 137.115 282.000,136.934 282.495,136.884 283.100 C 136.834 283.705,136.615 284.260,136.397 284.333 C 136.178 284.407,136.000 284.902,136.000 285.433 C 136.000 285.965,135.820 286.400,135.600 286.400 C 135.380 286.400,135.200 286.591,135.200 286.824 C 135.200 287.057,135.380 287.136,135.600 287.000 C 135.841 286.851,136.000 287.388,136.000 288.353 C 136.000 289.233,136.180 290.064,136.400 290.200 C 136.919 290.521,136.919 292.279,136.400 292.600 C 136.180 292.736,136.000 293.287,136.000 293.824 C 136.000 294.361,135.820 294.800,135.600 294.800 C 135.380 294.800,135.200 295.155,135.200 295.588 C 135.200 296.021,134.840 297.017,134.400 297.800 C 133.960 298.583,133.600 299.769,133.600 300.436 C 133.600 301.142,133.433 301.544,133.200 301.400 C 132.972 301.259,132.800 301.604,132.800 302.200 C 132.800 302.796,132.972 303.141,133.200 303.000 C 133.429 302.859,133.600 303.214,133.600 303.830 C 133.600 304.930,135.437 306.948,136.078 306.552 C 136.258 306.440,136.514 306.631,136.646 306.975 C 136.778 307.319,137.123 307.600,137.414 307.600 C 137.705 307.600,138.181 307.838,138.471 308.129 C 139.015 308.672,139.306 308.800,140.000 308.800 C 140.220 308.800,140.406 309.205,140.413 309.700 C 140.427 310.720,141.345 312.122,141.740 311.727 C 142.068 311.398,142.101 311.877,142.007 315.700 C 141.957 317.711,142.083 318.800,142.365 318.800 C 142.604 318.800,142.800 319.329,142.800 319.976 C 142.800 320.623,142.975 321.261,143.190 321.394 C 143.404 321.526,143.568 322.845,143.554 324.325 C 143.525 327.406,143.939 330.085,144.499 330.449 C 144.711 330.587,144.891 331.577,144.900 332.649 C 144.909 333.722,145.115 334.860,145.358 335.177 C 145.709 335.635,145.677 335.685,145.200 335.418 C 144.712 335.145,144.693 335.183,145.100 335.621 C 145.375 335.918,145.600 336.934,145.600 337.880 C 145.600 338.826,145.780 339.600,146.000 339.600 C 146.220 339.600,146.400 340.241,146.400 341.024 C 146.400 341.871,146.562 342.347,146.800 342.200 C 147.164 341.975,147.417 344.568,147.221 346.500 C 147.182 346.885,147.341 347.200,147.575 347.200 C 147.811 347.200,148.000 347.986,148.000 348.967 C 148.000 349.938,148.163 350.793,148.363 350.867 C 148.563 350.940,148.784 351.630,148.854 352.400 C 148.925 353.170,149.100 353.890,149.244 354.000 C 149.388 354.110,149.619 355.100,149.758 356.200 C 150.197 359.683,150.739 361.677,151.362 362.094 C 151.657 362.292,151.628 362.390,151.271 362.394 C 150.885 362.398,150.920 362.578,151.402 363.060 C 151.765 363.422,151.975 364.052,151.869 364.460 C 151.762 364.867,151.838 365.200,152.037 365.200 C 152.237 365.200,152.400 365.830,152.400 366.600 C 152.400 367.370,152.580 368.000,152.800 368.000 C 153.020 368.000,153.200 368.540,153.200 369.200 C 153.200 369.860,153.380 370.400,153.600 370.400 C 153.820 370.400,154.000 370.749,154.000 371.176 C 154.000 371.603,154.180 372.064,154.400 372.200 C 154.620 372.336,154.800 373.067,154.800 373.824 C 154.800 374.581,154.980 375.200,155.200 375.200 C 155.420 375.200,155.600 375.740,155.600 376.400 C 155.600 377.060,155.744 377.600,155.920 377.600 C 156.096 377.600,156.270 378.005,156.307 378.500 C 156.439 380.288,156.898 382.000,157.245 382.000 C 157.440 382.000,157.600 382.414,157.600 382.920 C 157.600 383.426,157.779 384.019,157.998 384.238 C 158.216 384.456,158.436 385.122,158.485 385.718 C 158.534 386.313,158.715 386.800,158.887 386.800 C 159.059 386.800,159.200 387.340,159.200 388.000 C 159.200 388.660,159.380 389.200,159.600 389.200 C 159.820 389.200,160.000 389.650,160.000 390.200 C 160.000 390.750,160.180 391.200,160.400 391.200 C 160.620 391.200,160.800 391.562,160.800 392.005 C 160.800 392.448,160.970 393.123,161.178 393.505 C 161.614 394.305,162.140 396.981,162.122 398.300 C 162.115 398.795,162.245 399.200,162.411 399.200 C 162.702 399.200,162.981 400.426,163.456 403.800 C 163.580 404.680,163.844 405.571,164.041 405.780 C 164.238 405.989,164.400 406.664,164.400 407.280 C 164.400 407.896,164.541 408.400,164.713 408.400 C 164.885 408.400,165.066 408.887,165.115 409.482 C 165.164 410.078,165.384 410.744,165.602 410.962 C 165.821 411.181,165.997 411.639,165.994 411.980 C 165.988 412.526,165.942 412.529,165.600 412.000 C 165.258 411.471,165.212 411.474,165.206 412.020 C 165.203 412.361,165.364 412.811,165.565 413.020 C 165.765 413.229,165.990 414.300,166.065 415.400 C 166.139 416.500,166.317 417.490,166.459 417.600 C 166.602 417.710,166.781 418.340,166.858 419.000 C 166.934 419.660,167.178 420.332,167.399 420.494 C 167.636 420.667,167.554 420.793,167.200 420.800 C 166.735 420.809,166.716 420.886,167.115 421.139 C 167.523 421.398,167.626 425.023,167.609 438.505 C 167.597 447.877,167.741 455.640,167.928 455.755 C 168.115 455.871,168.195 457.163,168.105 458.625 C 168.007 460.206,168.091 461.191,168.313 461.054 C 168.743 460.788,169.330 466.666,168.937 467.303 C 168.793 467.535,168.866 467.607,169.100 467.462 C 169.366 467.298,169.611 467.942,169.761 469.200 C 169.893 470.300,170.107 472.100,170.239 473.200 C 170.370 474.300,170.640 475.200,170.839 475.200 C 171.037 475.200,171.200 476.190,171.200 477.400 C 171.200 478.610,171.380 479.600,171.600 479.600 C 171.820 479.600,172.000 480.062,172.000 480.626 C 172.000 481.191,172.176 481.981,172.390 482.382 C 172.605 482.783,172.823 483.671,172.875 484.355 C 172.927 485.040,173.112 485.600,173.285 485.600 C 173.458 485.600,173.600 486.061,173.600 486.624 C 173.600 487.187,173.747 487.556,173.928 487.445 C 174.108 487.333,174.174 487.797,174.074 488.475 C 173.953 489.303,174.091 489.819,174.493 490.044 C 174.887 490.265,175.023 490.746,174.888 491.449 C 174.747 492.189,174.825 492.432,175.142 492.236 C 175.447 492.047,175.600 492.353,175.600 493.153 C 175.600 493.813,175.780 494.464,176.000 494.600 C 176.220 494.736,176.400 495.287,176.400 495.824 C 176.400 496.361,176.580 496.800,176.800 496.800 C 177.020 496.800,177.200 497.351,177.200 498.024 C 177.200 498.737,177.367 499.144,177.600 499.000 C 177.928 498.797,178.135 500.188,177.966 501.455 C 177.947 501.596,178.172 501.863,178.466 502.049 C 178.895 502.321,178.882 502.390,178.400 502.400 C 177.972 502.409,177.937 502.499,178.279 502.716 C 178.542 502.884,178.796 503.826,178.844 504.810 C 178.892 505.795,179.057 506.780,179.210 507.000 C 179.599 507.556,180.101 511.456,180.044 513.475 C 180.018 514.397,180.178 515.263,180.398 515.399 C 180.619 515.536,180.800 516.141,180.800 516.744 C 180.800 517.347,181.025 518.082,181.300 518.379 C 181.700 518.810,181.700 518.861,181.300 518.635 C 180.924 518.423,180.800 518.954,180.800 520.776 C 180.800 522.109,180.950 523.200,181.133 523.200 C 181.548 523.200,181.568 523.481,181.574 529.500 C 181.577 532.579,181.732 534.400,181.990 534.400 C 182.215 534.400,182.400 534.925,182.400 535.567 C 182.400 536.208,182.625 536.824,182.900 536.935 C 183.300 537.096,183.300 537.143,182.900 537.168 C 182.514 537.193,182.400 539.444,182.400 547.000 C 182.400 552.394,182.241 556.800,182.047 556.800 C 181.853 556.800,181.663 557.565,181.626 558.500 C 181.526 560.977,181.492 561.200,181.221 561.200 C 181.085 561.200,180.934 561.685,180.885 562.278 C 180.836 562.870,180.591 563.482,180.340 563.637 C 180.089 563.792,179.990 564.196,180.119 564.534 C 180.249 564.872,180.230 565.205,180.078 565.274 C 179.690 565.450,178.000 568.771,178.000 569.358 C 178.000 570.064,177.050 571.993,176.700 571.997 C 176.535 571.999,176.400 572.384,176.400 572.853 C 176.400 573.322,176.012 574.042,175.539 574.453 C 174.960 574.955,174.862 575.202,175.239 575.206 C 175.699 575.211,175.704 575.273,175.266 575.551 C 174.972 575.737,174.747 576.004,174.766 576.145 C 174.871 576.928,174.759 577.222,174.433 577.020 C 174.230 576.895,173.946 577.335,173.801 577.997 C 173.655 578.658,173.371 579.200,173.168 579.200 C 172.966 579.200,172.800 579.560,172.800 580.000 C 172.800 580.440,172.620 580.800,172.400 580.800 C 172.180 580.800,172.000 581.160,172.000 581.600 C 172.000 582.040,171.865 582.401,171.700 582.403 C 170.679 582.414,169.864 588.022,170.800 588.600 C 171.020 588.736,171.200 589.377,171.200 590.024 C 171.200 590.671,171.380 591.200,171.600 591.200 C 171.820 591.200,172.000 591.436,172.000 591.725 C 172.000 592.013,172.360 592.636,172.800 593.108 C 173.240 593.580,173.600 594.222,173.600 594.534 C 173.600 594.847,173.870 595.326,174.200 595.600 C 174.530 595.874,174.800 596.269,174.800 596.478 C 174.800 596.889,175.836 598.038,176.186 598.014 C 176.304 598.006,176.388 598.113,176.374 598.250 C 176.360 598.388,177.125 598.883,178.074 599.350 C 179.023 599.818,179.890 600.305,180.000 600.434 C 180.342 600.835,183.606 601.534,183.373 601.157 C 183.251 600.959,184.365 600.830,185.876 600.867 L 188.600 600.934 186.200 601.200 L 183.800 601.466 186.300 601.533 C 187.692 601.570,188.800 601.428,188.800 601.213 C 188.800 600.999,189.065 600.927,189.389 601.051 C 190.030 601.297,192.400 600.393,192.400 599.902 C 192.400 599.736,192.655 599.600,192.967 599.600 C 193.278 599.600,193.624 599.375,193.735 599.100 C 193.892 598.710,193.944 598.714,193.968 599.116 C 193.994 599.537,194.103 599.537,194.558 599.116 C 194.865 598.832,195.034 598.465,194.934 598.300 C 194.835 598.135,195.033 598.000,195.376 598.000 C 195.719 598.000,196.000 597.820,196.000 597.600 C 196.000 597.380,196.186 597.200,196.413 597.200 C 196.951 597.200,199.600 594.551,199.600 594.013 C 199.600 593.786,199.768 593.600,199.974 593.600 C 200.180 593.600,200.576 592.970,200.854 592.200 C 201.133 591.430,201.524 590.800,201.723 590.800 C 201.922 590.800,201.989 590.547,201.870 590.239 C 201.752 589.930,201.907 589.345,202.215 588.939 C 202.523 588.532,202.757 587.660,202.735 587.000 C 202.695 585.818,202.690 585.821,202.400 587.200 C 202.171 588.289,202.094 587.906,202.053 585.476 C 202.024 583.758,201.859 582.440,201.686 582.547 C 201.259 582.811,201.891 575.630,202.396 574.481 C 202.963 573.191,202.933 567.871,202.360 568.225 C 202.044 568.420,202.046 568.262,202.365 567.664 C 202.610 567.207,202.780 566.690,202.742 566.516 C 202.704 566.342,202.824 565.851,203.008 565.424 C 203.216 564.943,203.183 564.594,202.922 564.507 C 202.666 564.422,202.553 563.388,202.635 561.883 C 202.730 560.126,202.669 559.692,202.425 560.400 C 202.128 561.260,202.070 561.288,202.008 560.600 C 201.711 557.284,201.810 555.290,202.314 554.451 C 202.627 553.929,202.684 553.624,202.441 553.774 C 202.020 554.035,201.975 553.746,201.845 549.900 C 201.825 549.295,201.671 548.800,201.504 548.800 C 201.337 548.800,201.164 546.145,201.120 542.900 L 201.040 537.000 200.800 541.600 L 200.560 546.200 200.480 539.900 C 200.431 536.020,200.246 533.600,200.000 533.600 C 199.540 533.600,199.507 527.446,199.942 522.670 C 200.098 520.948,200.085 519.453,199.913 519.346 C 199.513 519.099,199.501 516.400,199.900 516.400 C 200.065 516.400,200.200 512.350,200.200 507.400 C 200.200 502.450,200.065 498.400,199.900 498.400 C 199.735 498.400,199.600 497.579,199.600 496.576 C 199.600 495.573,199.735 494.836,199.901 494.939 C 200.067 495.041,200.257 494.197,200.325 493.062 C 200.392 491.928,200.617 490.940,200.824 490.867 C 201.040 490.790,201.165 488.324,201.118 485.067 L 201.036 479.400 200.800 484.800 L 200.564 490.200 200.482 484.924 C 200.433 481.746,200.559 479.549,200.800 479.400 C 201.020 479.264,201.200 478.098,201.200 476.810 C 201.200 475.310,201.380 474.394,201.700 474.265 C 201.975 474.154,202.020 474.049,201.800 474.032 C 201.540 474.012,201.470 470.991,201.600 465.400 C 201.710 460.669,201.665 456.799,201.500 456.799 C 201.335 456.800,201.200 456.181,201.200 455.424 C 201.200 454.667,201.020 453.936,200.800 453.800 C 200.580 453.664,200.403 453.338,200.406 453.076 C 200.410 452.790,200.567 452.839,200.800 453.200 C 201.114 453.685,201.189 453.628,201.194 452.900 C 201.197 452.405,201.020 452.000,200.800 452.000 C 200.580 452.000,200.400 451.449,200.400 450.776 C 200.400 450.063,200.233 449.656,200.000 449.800 C 199.753 449.952,199.600 449.271,199.600 448.024 C 199.600 446.675,199.433 445.998,199.100 445.994 C 198.767 445.990,198.800 445.858,199.200 445.600 C 199.600 445.342,199.633 445.210,199.300 445.206 C 199.025 445.203,198.800 444.750,198.800 444.200 C 198.800 443.650,198.620 443.200,198.400 443.200 C 198.180 443.200,198.000 442.660,198.000 442.000 C 198.000 441.340,197.820 440.800,197.600 440.800 C 197.380 440.800,197.200 440.069,197.200 439.176 C 197.200 438.160,197.045 437.648,196.786 437.808 C 196.526 437.969,196.443 437.678,196.561 437.024 C 196.668 436.434,196.588 436.084,196.375 436.215 C 196.169 436.343,195.977 436.077,195.950 435.624 C 195.923 435.171,195.858 434.665,195.806 434.500 C 195.754 434.335,195.575 433.618,195.407 432.906 C 195.240 432.195,194.945 431.711,194.751 431.830 C 194.463 432.008,194.287 430.847,194.434 429.745 C 194.453 429.604,194.254 429.357,193.992 429.195 C 193.709 429.020,193.527 427.983,193.543 426.636 C 193.559 425.280,193.416 424.467,193.185 424.609 C 192.966 424.744,192.800 424.243,192.800 423.447 C 192.800 422.677,192.628 421.941,192.417 421.811 C 192.207 421.681,192.102 421.355,192.184 421.087 C 192.695 419.419,192.793 418.357,192.416 418.590 C 192.157 418.750,191.995 418.274,191.986 417.324 C 191.978 416.486,191.933 413.895,191.886 411.567 C 191.822 408.401,191.926 407.333,192.300 407.333 C 192.721 407.333,193.018 408.617,192.847 409.700 C 192.821 409.865,192.980 410.000,193.200 410.000 C 193.420 410.000,193.600 410.450,193.600 411.000 C 193.600 411.550,193.780 412.000,194.000 412.000 C 194.220 412.000,194.400 412.525,194.400 413.167 C 194.400 413.808,194.563 414.393,194.763 414.467 C 194.963 414.540,195.184 415.230,195.254 416.000 C 195.325 416.770,195.531 417.506,195.711 417.636 C 195.892 417.766,196.069 418.261,196.105 418.736 C 196.141 419.211,196.312 419.600,196.485 419.600 C 196.658 419.600,196.800 420.219,196.800 420.976 C 196.800 421.733,196.948 422.444,197.129 422.556 C 197.310 422.668,197.399 423.499,197.328 424.404 C 197.246 425.431,197.348 425.956,197.599 425.801 C 197.980 425.565,198.066 426.217,198.163 430.100 C 198.183 430.925,198.335 431.600,198.500 431.600 C 198.665 431.600,198.800 432.644,198.800 433.920 C 198.800 435.196,198.969 436.411,199.175 436.620 C 199.381 436.829,199.627 438.103,199.721 439.451 C 199.815 440.799,200.013 442.097,200.160 442.336 C 200.308 442.575,200.444 443.632,200.464 444.685 C 200.483 445.738,200.670 446.709,200.878 446.841 C 201.087 446.974,201.257 448.102,201.257 449.347 C 201.257 450.593,201.390 451.530,201.552 451.430 C 201.714 451.330,201.891 451.997,201.945 452.914 C 201.999 453.830,202.186 454.674,202.362 454.790 C 202.647 454.978,203.083 457.078,203.336 459.481 C 203.387 459.965,203.557 460.490,203.714 460.647 C 203.871 460.805,204.000 461.454,204.000 462.090 C 204.000 462.760,204.169 463.143,204.400 463.000 C 204.811 462.746,204.879 463.003,204.897 464.900 C 204.903 465.505,205.064 466.000,205.254 466.000 C 205.444 466.000,205.600 466.720,205.600 467.600 C 205.600 468.480,205.780 469.200,206.000 469.200 C 206.220 469.200,206.400 469.639,206.400 470.176 C 206.400 470.713,206.580 471.264,206.800 471.400 C 207.020 471.536,207.200 472.087,207.200 472.624 C 207.200 473.161,207.380 473.600,207.600 473.600 C 207.820 473.600,208.000 474.050,208.000 474.600 C 208.000 475.150,208.180 475.600,208.400 475.600 C 208.620 475.600,208.800 476.020,208.800 476.533 C 208.800 477.047,208.929 477.596,209.087 477.753 C 209.244 477.911,209.384 478.436,209.398 478.920 C 209.411 479.404,209.636 480.181,209.897 480.647 C 210.158 481.113,210.258 481.608,210.119 481.747 C 209.980 481.886,210.077 482.000,210.333 482.000 C 210.590 482.000,210.800 482.349,210.800 482.776 C 210.800 483.203,210.980 483.664,211.200 483.800 C 211.420 483.936,211.600 484.397,211.600 484.824 C 211.600 485.251,211.780 485.600,212.000 485.600 C 212.220 485.600,212.400 485.960,212.400 486.400 C 212.400 486.840,212.580 487.200,212.800 487.200 C 213.020 487.200,213.200 487.470,213.200 487.800 C 213.200 488.130,213.380 488.400,213.600 488.400 C 213.820 488.400,214.003 488.985,214.006 489.700 C 214.010 490.560,214.126 490.820,214.349 490.468 C 214.578 490.107,214.763 490.427,214.928 491.468 C 215.319 493.952,215.413 494.292,215.866 494.860 C 216.103 495.157,216.246 495.716,216.184 496.102 C 216.121 496.488,216.234 496.702,216.435 496.578 C 216.636 496.454,216.822 496.723,216.850 497.176 C 216.930 498.499,216.983 498.716,217.300 499.033 C 217.465 499.198,217.600 499.753,217.600 500.267 C 217.600 500.780,217.735 501.201,217.900 501.203 C 218.261 501.207,219.200 503.145,219.200 503.885 C 219.200 504.174,219.359 504.723,219.553 505.105 C 220.370 506.710,220.773 507.881,220.962 509.200 C 221.204 510.882,221.266 511.135,222.193 514.200 C 222.592 515.520,222.896 517.217,222.869 517.970 C 222.841 518.724,222.965 519.534,223.142 519.770 C 223.521 520.274,224.539 524.510,224.521 525.512 C 224.515 525.890,224.656 526.389,224.837 526.619 C 225.017 526.850,225.210 527.718,225.266 528.547 C 225.322 529.377,225.510 530.144,225.684 530.252 C 225.858 530.359,226.000 531.686,226.000 533.200 C 226.000 534.714,226.191 536.071,226.423 536.214 C 226.662 536.362,226.739 536.968,226.600 537.600 C 226.464 538.218,226.526 538.830,226.737 538.961 C 226.947 539.091,227.120 540.257,227.120 541.552 C 227.120 543.099,227.354 544.264,227.804 544.950 C 228.180 545.524,228.384 546.265,228.257 546.597 C 228.129 546.929,228.171 547.200,228.350 547.200 C 228.528 547.200,228.713 548.410,228.761 549.888 C 228.809 551.366,229.013 552.775,229.215 553.019 C 229.887 553.828,229.872 564.216,229.200 563.800 C 228.940 563.639,228.800 565.855,228.800 570.153 C 228.800 574.121,228.959 576.851,229.200 577.000 C 229.721 577.322,229.721 582.278,229.200 582.600 C 228.567 582.991,228.709 589.333,229.380 590.626 C 229.698 591.240,229.872 591.883,229.766 592.055 C 229.660 592.227,230.119 592.889,230.787 593.527 C 231.454 594.165,232.000 594.849,232.000 595.048 C 232.000 595.247,232.450 595.748,233.000 596.161 C 233.550 596.574,234.000 597.167,234.000 597.480 C 234.000 597.792,234.147 597.956,234.327 597.845 C 234.507 597.734,235.137 598.090,235.727 598.638 C 236.317 599.185,236.800 599.530,236.800 599.406 C 236.800 599.281,237.348 599.463,238.019 599.810 C 240.301 600.990,251.183 600.404,251.197 599.100 C 251.199 598.935,251.478 598.800,251.817 598.800 C 252.157 598.800,252.910 598.360,253.490 597.821 C 254.071 597.283,254.738 596.952,254.973 597.086 C 255.208 597.219,255.268 597.183,255.107 597.005 C 254.946 596.827,255.140 596.393,255.538 596.041 C 255.935 595.688,256.516 594.815,256.828 594.100 C 257.140 593.385,257.498 592.800,257.623 592.800 C 257.748 592.800,257.894 591.945,257.947 590.900 C 258.000 589.855,258.213 588.940,258.421 588.867 C 258.882 588.704,258.934 582.400,258.475 582.400 C 258.296 582.400,258.105 581.549,258.052 580.509 C 257.998 579.469,257.775 578.508,257.557 578.373 C 257.339 578.238,257.132 577.752,257.097 577.292 C 257.062 576.832,256.891 576.544,256.717 576.651 C 256.543 576.759,256.399 576.522,256.398 576.124 C 256.396 575.726,256.126 574.884,255.798 574.254 C 255.469 573.624,255.200 572.698,255.200 572.197 C 255.200 571.696,254.911 571.175,254.558 571.039 C 254.192 570.899,254.015 570.537,254.146 570.197 C 254.272 569.868,254.201 569.600,253.987 569.600 C 253.774 569.600,253.600 569.240,253.600 568.800 C 253.600 568.360,253.420 568.000,253.200 568.000 C 252.980 568.000,252.800 567.550,252.800 567.000 C 252.800 566.450,252.620 566.000,252.400 566.000 C 252.180 566.000,252.000 565.640,252.000 565.200 C 252.000 564.760,251.820 564.400,251.600 564.400 C 251.380 564.400,251.200 564.040,251.200 563.600 C 251.200 563.160,251.040 562.800,250.845 562.800 C 250.533 562.800,250.257 561.875,249.864 559.508 C 249.801 559.128,249.626 558.693,249.475 558.541 C 249.324 558.390,249.200 557.862,249.200 557.367 C 249.200 556.872,249.033 556.407,248.830 556.333 C 248.626 556.260,248.401 555.930,248.330 555.600 C 248.258 555.270,248.070 554.902,247.910 554.783 C 247.751 554.663,247.560 554.173,247.487 553.693 C 247.414 553.213,247.229 552.696,247.077 552.544 C 246.925 552.391,246.800 551.883,246.800 551.413 C 246.800 550.944,246.604 550.364,246.364 550.124 C 246.094 549.854,245.944 547.957,245.970 545.171 C 245.994 542.635,245.843 540.550,245.625 540.415 C 245.411 540.283,245.192 539.506,245.137 538.688 C 245.082 537.870,244.893 537.200,244.718 537.200 C 244.543 537.200,244.400 536.559,244.400 535.776 C 244.400 534.993,244.245 534.448,244.056 534.565 C 243.867 534.682,243.760 534.345,243.818 533.817 C 243.876 533.289,243.716 532.777,243.462 532.679 C 243.202 532.579,243.026 531.782,243.059 530.853 C 243.092 529.946,242.957 529.303,242.759 529.425 C 242.560 529.548,242.400 528.390,242.400 526.824 C 242.400 525.271,242.254 524.000,242.075 524.000 C 241.664 524.000,240.645 515.966,240.768 513.700 C 240.823 512.696,240.684 512.000,240.430 512.000 C 240.157 512.000,240.000 510.759,240.000 508.600 C 240.000 506.600,239.835 505.200,239.600 505.200 C 239.380 505.200,239.200 504.491,239.200 503.624 C 239.200 502.757,239.020 501.936,238.800 501.800 C 238.564 501.654,238.400 499.263,238.400 495.976 C 238.400 492.909,238.265 490.400,238.100 490.400 C 237.935 490.401,237.859 486.508,237.931 481.751 C 238.019 475.936,237.921 472.961,237.631 472.671 C 237.394 472.434,237.200 471.556,237.200 470.720 C 237.200 469.884,237.020 469.200,236.800 469.200 C 236.225 469.200,236.266 458.130,236.843 457.774 C 237.153 457.582,237.126 457.401,236.754 457.171 C 236.375 456.937,236.252 456.030,236.328 454.021 C 236.393 452.265,236.276 451.200,236.017 451.200 C 235.787 451.200,235.600 450.761,235.600 450.224 C 235.600 449.687,235.420 449.136,235.199 448.999 C 234.931 448.834,234.931 448.502,235.200 448.000 C 235.469 447.498,235.469 447.166,235.201 447.001 C 234.980 446.864,234.800 446.259,234.800 445.656 C 234.800 445.053,234.575 444.318,234.300 444.021 C 233.900 443.590,233.900 443.539,234.300 443.765 C 234.575 443.920,234.800 443.872,234.800 443.657 C 234.800 443.442,234.609 443.203,234.376 443.125 C 234.143 443.048,233.942 442.220,233.929 441.286 C 233.916 440.353,233.747 439.491,233.553 439.371 C 233.359 439.251,233.200 438.713,233.200 438.176 C 233.200 437.639,233.041 437.200,232.847 437.200 C 232.653 437.200,232.367 435.850,232.213 434.200 C 232.058 432.550,231.812 431.199,231.666 431.197 C 231.155 431.191,230.431 429.201,230.938 429.194 C 231.267 429.190,231.274 429.103,230.960 428.894 C 230.301 428.454,229.600 426.964,229.600 426.003 C 229.600 425.535,229.420 425.264,229.200 425.400 C 228.962 425.547,228.800 425.071,228.800 424.224 C 228.800 423.441,228.620 422.800,228.400 422.800 C 228.180 422.800,228.000 422.260,228.000 421.600 C 228.000 420.940,227.820 420.400,227.600 420.400 C 227.380 420.400,227.200 420.130,227.200 419.800 C 227.200 419.470,227.020 419.200,226.800 419.200 C 226.580 419.200,226.400 418.671,226.400 418.024 C 226.400 417.377,226.228 416.741,226.017 416.611 C 225.807 416.481,225.736 416.110,225.860 415.787 C 225.984 415.464,225.886 415.200,225.643 415.200 C 225.399 415.200,225.200 414.750,225.200 414.200 C 225.200 413.650,225.020 413.200,224.800 413.200 C 224.580 413.200,224.400 412.840,224.400 412.400 C 224.400 411.960,224.220 411.600,224.000 411.600 C 223.780 411.600,223.600 411.060,223.600 410.400 C 223.600 409.740,223.420 409.200,223.200 409.200 C 222.980 409.200,222.800 408.765,222.800 408.233 C 222.800 407.702,222.605 407.202,222.367 407.122 C 222.128 407.043,221.933 406.128,221.933 405.089 C 221.933 404.050,221.768 403.200,221.567 403.200 C 221.365 403.200,221.200 401.929,221.200 400.376 C 221.200 398.234,221.079 397.621,220.700 397.835 C 220.300 398.061,220.300 398.010,220.700 397.579 C 220.975 397.282,221.200 396.626,221.200 396.120 C 221.200 395.614,221.425 395.197,221.700 395.194 C 222.034 395.190,222.002 395.062,221.603 394.811 C 221.128 394.510,221.108 394.332,221.503 393.937 C 221.777 393.663,222.000 392.936,222.000 392.320 C 222.000 391.704,222.159 391.200,222.353 391.200 C 222.547 391.200,222.716 390.452,222.729 389.539 C 222.741 388.625,222.897 387.770,223.076 387.639 C 223.254 387.507,223.423 386.500,223.451 385.400 C 223.499 383.531,224.772 378.670,225.622 377.105 C 226.118 376.194,226.100 375.627,225.600 376.400 C 225.269 376.913,225.211 376.898,225.206 376.300 C 225.203 375.915,225.391 375.600,225.624 375.600 C 225.870 375.600,225.969 375.098,225.859 374.402 C 225.755 373.743,225.835 373.102,226.035 372.978 C 226.236 372.854,226.400 371.518,226.400 370.010 C 226.400 368.501,226.575 367.207,226.788 367.133 C 227.002 367.060,227.237 366.600,227.311 366.110 C 227.385 365.621,227.571 365.096,227.723 364.944 C 227.875 364.791,228.000 364.257,228.000 363.757 C 228.000 363.257,228.180 362.736,228.400 362.600 C 228.620 362.464,228.800 361.543,228.800 360.553 C 228.800 359.455,228.956 358.849,229.200 359.000 C 229.442 359.149,229.600 358.604,229.600 357.624 C 229.600 356.731,229.791 356.000,230.024 356.000 C 230.257 356.000,230.356 355.852,230.244 355.671 C 230.132 355.491,230.279 354.883,230.570 354.322 C 230.862 353.761,231.100 352.808,231.100 352.205 C 231.100 351.602,231.276 350.994,231.491 350.855 C 231.706 350.715,231.857 350.105,231.828 349.500 C 231.798 348.895,231.915 348.400,232.087 348.400 C 232.259 348.400,232.400 347.770,232.400 347.000 C 232.400 346.230,232.580 345.600,232.800 345.600 C 233.020 345.600,233.200 344.869,233.200 343.976 C 233.200 342.996,233.358 342.451,233.600 342.600 C 233.847 342.752,234.000 342.071,234.000 340.824 C 234.000 339.711,234.180 338.800,234.400 338.800 C 234.620 338.800,234.800 338.069,234.800 337.176 C 234.800 336.196,234.958 335.651,235.200 335.800 C 235.447 335.952,235.600 335.271,235.600 334.024 C 235.600 332.911,235.780 332.000,236.000 332.000 C 236.220 332.000,236.400 331.550,236.400 331.000 C 236.400 330.450,236.601 330.000,236.847 330.000 C 237.110 330.000,237.199 329.639,237.063 329.121 C 236.937 328.637,237.043 327.989,237.299 327.680 C 237.789 327.090,237.816 326.979,238.219 323.800 C 238.358 322.700,238.636 321.740,238.836 321.667 C 239.036 321.593,239.200 320.918,239.200 320.167 C 239.200 319.415,239.380 318.800,239.600 318.800 C 239.820 318.800,240.000 318.157,240.000 317.371 C 240.000 315.505,240.860 314.581,241.960 315.268 C 242.781 315.781,244.267 315.294,245.532 314.096 C 245.825 313.819,246.230 313.695,246.432 313.820 C 246.635 313.945,246.800 313.827,246.800 313.557 C 246.800 313.287,246.905 313.171,247.033 313.299 C 247.838 314.105,249.886 310.679,249.797 308.675 C 249.677 305.999,249.660 305.916,249.279 306.151 C 249.102 306.260,248.994 305.821,249.039 305.175 C 249.084 304.529,248.958 304.000,248.760 304.000 C 248.562 304.000,248.400 303.809,248.400 303.576 C 248.400 303.343,248.625 303.280,248.900 303.435 C 249.300 303.661,249.300 303.610,248.900 303.179 C 248.625 302.882,248.400 302.035,248.400 301.296 C 248.400 300.503,248.236 300.054,248.000 300.200 C 247.777 300.338,247.600 300.031,247.600 299.504 C 247.600 298.985,247.384 298.344,247.120 298.080 C 246.747 297.707,246.761 297.600,247.187 297.600 C 247.487 297.600,247.633 297.500,247.510 297.377 C 247.388 297.254,247.770 296.625,248.361 295.979 C 249.469 294.765,249.483 294.631,249.117 288.800 C 249.096 288.470,248.938 288.107,248.766 287.993 C 248.593 287.878,248.391 287.338,248.316 286.793 C 248.241 286.247,248.021 285.547,247.828 285.238 C 247.568 284.822,247.622 284.760,248.038 284.997 C 248.493 285.256,248.504 285.214,248.100 284.779 C 247.825 284.482,247.600 283.646,247.600 282.920 C 247.600 282.194,247.420 281.600,247.200 281.600 C 246.980 281.600,246.800 280.880,246.800 280.000 C 246.800 279.120,246.620 278.400,246.400 278.400 C 246.180 278.400,246.000 277.986,246.000 277.480 C 246.000 276.974,245.775 276.318,245.500 276.021 C 245.094 275.584,245.112 275.542,245.600 275.800 C 246.088 276.058,246.106 276.016,245.700 275.579 C 245.425 275.282,245.200 274.536,245.200 273.920 C 245.200 273.304,245.020 272.800,244.800 272.800 C 244.580 272.800,244.400 272.170,244.400 271.400 C 244.400 270.630,244.255 270.000,244.077 270.000 C 243.899 270.000,243.795 269.416,243.844 268.703 C 243.893 267.990,243.787 267.315,243.607 267.203 C 243.427 267.091,243.221 266.370,243.149 265.600 C 243.076 264.830,242.856 264.085,242.659 263.945 C 242.461 263.806,242.300 263.224,242.300 262.653 C 242.300 262.082,242.142 261.712,241.950 261.831 C 241.757 261.950,241.600 261.512,241.600 260.857 C 241.600 260.202,241.403 259.601,241.163 259.521 C 240.923 259.441,240.698 258.886,240.663 258.288 C 240.628 257.690,240.465 257.200,240.300 257.200 C 240.135 257.200,240.000 256.840,240.000 256.400 C 240.000 255.960,239.820 255.600,239.600 255.600 C 239.380 255.600,239.200 255.345,239.200 255.033 C 239.200 254.722,239.018 254.406,238.796 254.332 C 238.312 254.171,238.035 253.104,237.640 249.876 C 237.618 249.698,237.437 249.654,237.237 249.777 C 237.038 249.900,236.969 249.641,237.084 249.201 C 237.201 248.753,237.096 248.400,236.847 248.400 C 236.601 248.400,236.400 248.040,236.400 247.600 C 236.400 247.160,236.220 246.800,236.000 246.800 C 235.780 246.800,235.600 246.429,235.600 245.976 C 235.600 245.523,235.420 245.264,235.200 245.400 C 234.967 245.544,234.800 245.137,234.800 244.424 C 234.800 243.751,234.620 243.200,234.400 243.200 C 234.180 243.200,234.000 242.855,234.000 242.433 C 234.000 242.012,233.865 241.607,233.700 241.533 C 233.190 241.307,231.600 238.133,231.865 237.868 C 232.002 237.731,231.845 237.515,231.515 237.389 C 230.880 237.145,230.915 234.648,231.565 233.819 C 231.745 233.588,231.866 232.905,231.833 232.300 C 231.800 231.695,231.906 231.200,232.067 231.200 C 232.228 231.200,232.354 229.715,232.346 227.900 C 232.322 222.305,232.379 221.540,232.800 221.800 C 233.033 221.944,233.200 221.537,233.200 220.824 C 233.200 220.151,233.380 219.600,233.600 219.600 C 233.820 219.600,234.000 219.150,234.000 218.600 C 234.000 218.050,234.180 217.600,234.400 217.600 C 234.620 217.600,234.800 217.240,234.800 216.800 C 234.800 216.360,234.991 216.000,235.224 216.000 C 235.457 216.000,235.545 215.835,235.420 215.632 C 235.295 215.430,235.464 214.993,235.796 214.661 C 236.128 214.329,236.400 213.864,236.400 213.629 C 236.400 213.393,236.580 213.200,236.800 213.200 C 237.020 213.200,237.200 212.868,237.200 212.461 C 237.200 211.788,237.865 210.089,238.826 208.305 C 239.032 207.923,239.200 207.158,239.200 206.605 C 239.200 206.052,239.380 205.600,239.600 205.600 C 239.820 205.600,240.000 204.880,240.000 204.000 C 240.000 203.120,240.180 202.400,240.400 202.400 C 240.620 202.400,240.800 201.950,240.800 201.400 C 240.800 200.850,240.980 200.400,241.200 200.400 C 241.420 200.400,241.600 199.680,241.600 198.800 C 241.600 197.897,241.793 197.200,242.043 197.200 C 242.286 197.200,242.384 196.935,242.260 196.612 C 242.136 196.288,242.258 195.793,242.531 195.512 C 242.805 195.230,243.073 194.382,243.126 193.627 C 243.180 192.871,243.368 192.061,243.544 191.827 C 243.720 191.592,243.826 190.813,243.779 190.095 C 243.732 189.377,243.852 188.691,244.047 188.571 C 244.241 188.451,244.400 187.679,244.400 186.856 C 244.400 185.431,245.145 183.210,245.625 183.203 C 245.749 183.201,245.894 182.345,245.947 181.300 C 246.000 180.255,246.213 179.340,246.421 179.267 C 246.630 179.193,246.800 178.698,246.800 178.167 C 246.800 177.635,246.980 177.200,247.200 177.200 C 247.420 177.200,247.600 176.840,247.600 176.400 C 247.600 175.960,247.780 175.600,248.000 175.600 C 248.220 175.600,248.400 175.090,248.400 174.467 C 248.400 173.843,248.535 173.198,248.700 173.033 C 249.093 172.640,249.202 171.315,249.170 167.275 C 249.154 165.267,249.331 163.724,249.617 163.380 C 249.877 163.067,249.987 162.544,249.862 162.218 C 249.737 161.892,249.807 161.519,250.017 161.389 C 250.228 161.259,250.400 160.793,250.400 160.353 C 250.400 159.913,250.580 159.664,250.800 159.800 C 251.033 159.944,251.200 159.545,251.200 158.847 C 251.200 158.187,251.380 157.536,251.600 157.400 C 251.820 157.264,252.000 156.713,252.000 156.176 C 252.000 155.639,252.180 155.200,252.400 155.200 C 252.620 155.200,252.800 154.570,252.800 153.800 C 252.800 153.030,252.980 152.400,253.200 152.400 C 253.420 152.400,253.600 151.500,253.600 150.400 C 253.600 149.300,253.768 148.400,253.973 148.400 C 254.179 148.400,254.331 147.843,254.311 147.162 C 254.292 146.481,254.453 145.806,254.668 145.662 C 255.826 144.889,255.237 139.360,253.849 137.962 C 251.434 135.529,248.540 133.600,247.306 133.600 C 247.028 133.600,246.800 133.420,246.800 133.200 C 246.800 132.980,246.200 132.800,245.467 132.800 C 244.733 132.800,243.998 132.665,243.833 132.500 C 243.669 132.335,243.144 132.165,242.667 132.123 C 240.107 131.895,238.000 131.455,238.000 131.148 C 238.000 130.957,237.100 130.800,236.000 130.800 C 234.900 130.800,234.000 130.620,234.000 130.400 C 234.000 130.180,233.640 130.000,233.200 130.000 C 232.760 130.000,232.400 129.820,232.400 129.600 C 232.400 129.380,232.130 129.200,231.800 129.200 C 231.259 129.200,231.022 128.725,231.153 127.900 C 231.179 127.735,231.020 127.600,230.800 127.600 C 230.580 127.600,230.400 127.096,230.400 126.480 C 230.400 125.864,230.257 125.189,230.082 124.980 C 229.495 124.280,228.720 121.536,228.720 120.161 C 228.720 119.412,228.558 118.800,228.360 118.800 C 228.162 118.800,228.000 118.182,228.000 117.426 C 228.000 116.670,227.824 115.590,227.610 115.026 C 227.356 114.359,227.356 114.000,227.610 114.000 C 227.843 114.000,228.032 111.472,228.080 107.700 L 228.160 101.400 228.405 106.000 L 228.650 110.600 228.711 104.800 C 228.744 101.610,228.880 98.550,229.013 98.000 C 229.146 97.450,229.351 96.370,229.469 95.600 C 229.587 94.830,229.845 94.140,230.042 94.067 C 230.239 93.993,230.400 93.758,230.400 93.543 C 230.400 93.328,230.175 93.280,229.900 93.435 C 229.500 93.661,229.500 93.610,229.900 93.179 C 230.175 92.882,230.400 92.226,230.400 91.720 C 230.400 91.214,230.542 90.800,230.716 90.800 C 230.889 90.800,230.865 89.250,230.662 87.357 C 230.430 85.188,230.434 83.818,230.674 83.657 C 230.884 83.515,231.102 82.410,231.159 81.200 C 231.217 79.990,231.429 78.940,231.632 78.867 C 232.195 78.663,232.075 76.401,231.500 76.394 C 231.164 76.390,231.141 76.291,231.429 76.094 C 231.665 75.932,231.898 75.350,231.946 74.800 C 231.995 74.250,232.132 72.585,232.251 71.100 C 232.371 69.615,232.633 68.400,232.834 68.400 C 233.041 68.400,233.200 65.523,233.200 61.800 C 233.200 57.667,233.051 55.200,232.800 55.200 C 232.580 55.200,232.397 54.705,232.394 54.100 C 232.382 52.110,230.397 50.383,227.815 50.117 C 226.586 49.990,225.664 49.803,225.766 49.701 C 225.868 49.599,225.550 49.114,225.059 48.623 C 224.152 47.716,223.982 44.400,224.842 44.400 C 225.039 44.400,225.200 43.950,225.200 43.400 C 225.200 42.850,224.975 42.397,224.700 42.394 C 224.367 42.390,224.400 42.258,224.800 42.000 C 225.200 41.742,225.233 41.610,224.900 41.606 C 224.610 41.603,224.400 41.085,224.400 40.376 C 224.400 39.663,224.233 39.256,224.000 39.400 C 223.780 39.536,223.600 39.337,223.600 38.957 C 223.600 38.577,223.491 38.376,223.357 38.509 C 223.224 38.643,222.740 38.403,222.282 37.976 C 221.824 37.549,221.138 37.200,220.758 37.200 C 220.378 37.200,220.007 37.030,219.933 36.821 C 219.860 36.613,218.945 36.400,217.900 36.347 C 216.855 36.294,216.000 36.104,216.000 35.925 C 216.000 35.746,214.020 35.600,211.600 35.600 C 208.933 35.600,207.200 35.758,207.200 36.000 M142.689 317.300 C 142.601 318.015,142.528 317.430,142.528 316.000 C 142.528 314.570,142.601 313.985,142.689 314.700 C 142.778 315.415,142.778 316.585,142.689 317.300 M193.619 328.700 C 193.629 329.305,193.685 331.870,193.743 334.400 C 193.802 336.930,193.681 339.225,193.476 339.500 C 193.227 339.832,193.269 340.000,193.600 340.000 C 193.984 340.000,193.976 340.146,193.568 340.639 C 193.121 341.177,193.143 341.336,193.702 341.649 C 194.491 342.090,194.188 343.247,193.367 342.932 C 193.055 342.812,192.791 342.779,192.780 342.857 C 192.413 345.436,192.410 346.522,192.772 346.000 C 193.257 345.300,193.232 345.236,193.442 347.756 C 193.533 348.857,193.409 349.948,193.157 350.251 C 192.912 350.547,192.821 351.231,192.957 351.770 C 193.092 352.310,193.046 352.848,192.855 352.966 C 192.664 353.084,192.594 353.633,192.699 354.186 C 192.805 354.738,193.032 355.104,193.204 354.998 C 193.376 354.891,193.623 355.083,193.754 355.423 C 193.898 355.798,193.825 355.939,193.569 355.781 C 192.778 355.292,192.059 356.951,192.130 359.100 C 192.169 360.256,192.079 361.201,191.931 361.200 C 191.783 361.200,191.751 362.235,191.861 363.500 C 192.263 368.131,192.236 369.600,191.749 369.600 C 191.472 369.600,191.362 369.932,191.484 370.400 C 191.599 370.840,191.897 371.203,192.147 371.206 C 192.468 371.210,192.473 371.298,192.165 371.506 C 191.626 371.870,191.179 373.518,191.575 373.681 C 191.970 373.843,191.266 376.400,190.826 376.400 C 190.633 376.400,190.569 376.040,190.684 375.600 C 190.801 375.153,190.696 374.800,190.447 374.800 C 190.201 374.800,190.000 374.609,190.000 374.376 C 190.000 374.143,190.225 374.088,190.500 374.253 C 190.881 374.482,190.894 374.416,190.555 373.977 C 190.310 373.660,190.072 372.056,190.025 370.414 C 189.979 368.771,189.836 367.259,189.709 367.052 C 189.581 366.845,189.646 366.781,189.852 366.909 C 190.059 367.037,190.229 366.808,190.229 366.400 C 190.229 365.992,190.087 365.746,189.914 365.853 C 189.741 365.960,189.600 365.756,189.600 365.400 C 189.600 365.044,189.787 364.868,190.016 365.010 C 190.288 365.178,190.340 364.876,190.165 364.134 C 189.820 362.672,189.820 362.722,190.186 361.883 C 190.358 361.488,190.387 361.053,190.249 360.916 C 190.112 360.779,190.000 360.967,190.000 361.333 C 190.000 361.700,189.850 362.000,189.667 362.000 C 188.942 362.000,189.388 360.843,190.267 360.442 C 191.243 359.997,191.580 358.405,190.700 358.394 C 190.367 358.390,190.400 358.258,190.800 358.000 C 191.175 357.757,191.218 357.610,190.915 357.606 C 190.560 357.602,190.496 356.896,190.676 354.962 C 190.866 352.928,190.794 352.242,190.361 351.968 C 189.962 351.715,189.945 351.610,190.300 351.606 C 190.666 351.602,190.800 350.530,190.800 347.600 C 190.800 344.311,190.693 343.600,190.200 343.600 C 189.870 343.600,189.600 343.420,189.600 343.200 C 189.600 342.980,189.751 342.800,189.935 342.800 C 190.120 342.800,190.295 342.125,190.324 341.300 C 190.363 340.207,190.274 339.963,189.995 340.400 C 189.785 340.730,189.609 340.797,189.606 340.549 C 189.603 340.301,189.860 339.882,190.178 339.619 C 190.812 339.092,190.209 337.024,189.542 337.436 C 189.354 337.552,189.200 337.266,189.200 336.800 C 189.200 336.334,189.335 336.036,189.500 336.139 C 189.665 336.241,189.800 334.919,189.800 333.202 C 189.800 331.484,189.665 330.162,189.500 330.263 C 189.139 330.484,189.122 330.270,189.433 329.458 C 189.561 329.124,189.921 328.948,190.233 329.068 C 190.545 329.188,190.800 329.086,190.800 328.843 C 190.800 328.599,191.250 328.400,191.800 328.400 C 192.350 328.400,192.800 328.220,192.800 328.000 C 192.800 327.780,192.980 327.600,193.200 327.600 C 193.420 327.600,193.608 328.095,193.619 328.700 M192.400 348.800 C 192.400 349.240,192.580 349.600,192.800 349.600 C 193.020 349.600,193.200 349.240,193.200 348.800 C 193.200 348.360,193.020 348.000,192.800 348.000 C 192.580 348.000,192.400 348.360,192.400 348.800 M190.308 354.075 C 190.221 354.336,189.936 354.621,189.675 354.708 C 189.382 354.806,189.293 354.623,189.443 354.233 C 189.722 353.506,190.548 353.355,190.308 354.075 M192.400 377.224 C 192.400 377.457,192.232 377.544,192.028 377.417 C 191.823 377.291,191.550 377.357,191.421 377.566 C 191.292 377.774,191.373 378.060,191.600 378.200 C 191.827 378.340,191.907 378.668,191.777 378.928 C 191.647 379.187,191.786 379.102,192.087 378.738 C 192.557 378.167,192.611 378.444,192.475 380.738 C 192.316 383.395,191.930 384.458,191.422 383.635 C 191.274 383.396,191.351 383.200,191.592 383.200 C 191.863 383.200,191.987 382.522,191.916 381.438 C 191.852 380.470,191.665 379.760,191.500 379.862 C 191.335 379.964,191.200 379.687,191.200 379.247 C 191.200 378.807,191.020 378.336,190.800 378.200 C 190.580 378.064,190.400 377.773,190.400 377.553 C 190.400 377.333,190.568 377.256,190.772 377.383 C 190.977 377.509,191.258 377.430,191.396 377.207 C 191.726 376.672,192.400 376.684,192.400 377.224 M192.109 385.626 C 191.820 386.730,191.200 386.584,191.200 385.413 C 191.200 384.734,191.374 384.492,191.756 384.638 C 192.077 384.762,192.226 385.178,192.109 385.626 M192.400 387.824 C 192.400 388.141,192.184 388.400,191.920 388.400 C 191.547 388.400,191.547 388.507,191.920 388.880 C 192.550 389.510,192.537 390.117,191.900 389.794 C 191.625 389.655,191.670 389.779,192.000 390.070 C 192.683 390.673,193.027 396.000,192.383 396.000 C 192.172 396.000,191.987 395.685,191.972 395.300 C 191.948 394.701,191.894 394.716,191.600 395.400 C 191.287 396.128,191.254 396.109,191.228 395.180 C 191.213 394.619,191.425 393.918,191.700 393.621 C 192.100 393.190,192.100 393.139,191.700 393.365 C 191.347 393.564,191.200 393.286,191.200 392.424 C 191.200 391.715,191.410 391.197,191.700 391.194 C 192.010 391.190,192.048 391.076,191.800 390.894 C 191.235 390.479,191.070 387.600,191.610 387.600 C 191.851 387.600,191.919 387.392,191.762 387.138 C 191.585 386.852,191.652 386.785,191.938 386.962 C 192.192 387.119,192.400 387.507,192.400 387.824 M192.030 398.110 C 191.981 398.588,191.432 398.496,191.260 397.980 C 191.172 397.716,191.316 397.572,191.580 397.660 C 191.844 397.748,192.047 397.950,192.030 398.110 M192.688 400.300 C 192.656 401.764,192.161 402.547,191.519 402.150 C 190.958 401.803,191.173 400.815,191.760 401.040 C 192.070 401.159,192.310 401.019,192.297 400.727 C 192.257 399.807,192.394 398.800,192.560 398.800 C 192.649 398.800,192.706 399.475,192.688 400.300 M192.540 405.813 C 192.416 406.136,192.019 406.386,191.657 406.368 C 191.242 406.348,191.184 406.262,191.500 406.135 C 191.775 406.024,192.000 405.668,192.000 405.343 C 192.000 405.018,192.172 404.859,192.383 404.989 C 192.593 405.119,192.664 405.490,192.540 405.813 M235.883 453.695 C 235.787 454.193,235.705 453.880,235.701 453.000 C 235.696 452.120,235.775 451.713,235.875 452.095 C 235.975 452.478,235.979 453.198,235.883 453.695 M237.498 483.700 C 237.425 485.735,237.366 484.070,237.366 480.000 C 237.366 475.930,237.425 474.265,237.498 476.300 C 237.571 478.335,237.571 481.665,237.498 483.700 M202.292 572.691 C 202.205 573.521,202.133 572.940,202.131 571.400 C 202.129 569.860,202.200 569.181,202.289 569.891 C 202.377 570.601,202.379 571.861,202.292 572.691 " stroke="none" fill="#54547c" fill-rule="evenodd"></path><path id="path1" d="M230.793 88.519 L 230.985 90.600 231.118 88.846 C 231.191 87.881,231.105 86.944,230.926 86.765 C 230.747 86.585,230.687 87.375,230.793 88.519 M171.400 91.564 C 171.400 92.862,171.532 93.717,171.694 93.463 C 172.081 92.853,172.086 89.200,171.700 89.201 C 171.535 89.202,171.400 90.265,171.400 91.564 M228.060 106.300 C 228.027 108.995,228.135 111.200,228.300 111.200 C 228.465 111.200,228.549 109.445,228.487 107.300 C 228.314 101.313,228.126 100.873,228.060 106.300 M148.800 148.224 C 148.800 148.804,148.973 149.140,149.200 149.000 C 149.420 148.864,149.600 148.403,149.600 147.976 C 149.600 147.549,149.420 147.200,149.200 147.200 C 148.980 147.200,148.800 147.661,148.800 148.224 M150.933 158.358 C 150.950 159.451,151.072 160.279,151.204 160.197 C 151.506 160.011,151.445 156.912,151.133 156.600 C 151.006 156.473,150.916 157.264,150.933 158.358 M249.337 166.600 C 249.339 168.360,249.409 169.030,249.493 168.089 C 249.578 167.149,249.577 165.709,249.491 164.889 C 249.405 164.070,249.336 164.840,249.337 166.600 M135.402 287.197 C 135.267 287.415,135.341 287.910,135.566 288.297 C 135.917 288.900,135.977 288.844,135.988 287.900 C 136.001 286.750,135.816 286.528,135.402 287.197 M249.293 292.800 C 249.293 293.570,249.375 293.885,249.476 293.500 C 249.576 293.115,249.576 292.485,249.476 292.100 C 249.375 291.715,249.293 292.030,249.293 292.800 M142.528 316.000 C 142.528 317.430,142.601 318.015,142.689 317.300 C 142.778 316.585,142.778 315.415,142.689 314.700 C 142.601 313.985,142.528 314.570,142.528 316.000 M142.800 323.200 C 142.800 324.463,142.953 325.153,143.200 325.000 C 143.420 324.864,143.600 324.054,143.600 323.200 C 143.600 322.346,143.420 321.536,143.200 321.400 C 142.953 321.247,142.800 321.937,142.800 323.200 M189.520 329.300 C 189.428 329.575,189.476 331.060,189.625 332.600 L 189.896 335.400 189.872 332.100 C 189.848 328.728,189.810 328.426,189.520 329.300 M189.467 335.867 C 189.054 336.279,189.152 337.677,189.575 337.416 C 189.781 337.288,189.922 336.828,189.889 336.392 C 189.822 335.497,189.829 335.505,189.467 335.867 M193.200 342.176 C 193.200 342.493,193.361 342.852,193.558 342.974 C 193.970 343.229,194.466 342.200,194.106 341.839 C 193.677 341.410,193.200 341.587,193.200 342.176 M192.617 343.972 C 192.344 344.414,192.975 344.892,193.344 344.522 C 193.725 344.142,193.654 343.600,193.224 343.600 C 193.017 343.600,192.744 343.768,192.617 343.972 M192.642 346.235 C 192.243 347.275,192.367 348.078,192.900 347.900 C 193.450 347.717,193.672 346.092,193.188 345.792 C 193.021 345.689,192.775 345.888,192.642 346.235 M189.443 354.233 C 189.293 354.623,189.382 354.806,189.675 354.708 C 190.273 354.509,190.602 353.600,190.076 353.600 C 189.861 353.600,189.576 353.885,189.443 354.233 M192.513 355.220 C 192.537 356.767,192.666 357.049,193.371 357.098 C 194.118 357.150,194.131 357.117,193.500 356.758 C 192.658 356.280,192.557 355.421,193.380 355.737 C 193.766 355.885,193.885 355.767,193.738 355.382 C 193.616 355.064,193.368 354.896,193.187 355.008 C 193.005 355.120,192.774 354.804,192.671 354.306 C 192.569 353.808,192.498 354.219,192.513 355.220 M189.800 360.706 C 189.275 361.092,189.102 362.000,189.553 362.000 C 189.748 362.000,190.001 361.640,190.116 361.200 C 190.351 360.301,190.351 360.301,189.800 360.706 M189.712 365.906 C 189.760 366.575,189.932 367.041,190.094 366.941 C 190.430 366.734,190.287 365.354,189.889 364.955 C 189.743 364.810,189.663 365.237,189.712 365.906 M190.940 370.795 C 191.190 372.378,191.272 372.459,191.916 371.760 C 192.214 371.437,192.256 371.200,192.016 371.200 C 191.787 371.200,191.600 370.941,191.600 370.624 C 191.600 370.307,191.406 369.927,191.169 369.781 C 190.882 369.603,190.806 369.941,190.940 370.795 M191.396 377.207 C 191.258 377.430,190.977 377.509,190.772 377.383 C 190.568 377.256,190.400 377.333,190.400 377.553 C 190.400 377.773,190.580 378.064,190.800 378.200 C 191.020 378.336,191.200 378.807,191.200 379.247 C 191.200 379.687,191.380 379.936,191.600 379.800 C 191.846 379.648,192.012 380.370,192.032 381.676 C 192.071 384.332,192.294 383.780,192.494 380.528 C 192.627 378.379,192.575 378.144,192.094 378.728 C 191.790 379.098,191.647 379.187,191.777 378.928 C 191.907 378.668,191.827 378.340,191.600 378.200 C 191.373 378.060,191.292 377.774,191.421 377.566 C 191.550 377.357,191.823 377.291,192.028 377.417 C 192.232 377.544,192.400 377.457,192.400 377.224 C 192.400 376.684,191.726 376.672,191.396 377.207 M191.200 385.413 C 191.200 386.584,191.820 386.730,192.109 385.626 C 192.226 385.178,192.077 384.762,191.756 384.638 C 191.374 384.492,191.200 384.734,191.200 385.413 M191.303 389.103 C 191.334 389.523,191.594 389.867,191.880 389.867 C 192.565 389.867,192.540 389.414,191.823 388.819 C 191.352 388.428,191.256 388.481,191.303 389.103 M192.493 393.600 C 192.493 394.370,192.575 394.685,192.676 394.300 C 192.776 393.915,192.776 393.285,192.676 392.900 C 192.575 392.515,192.493 392.830,192.493 393.600 M191.303 394.702 C 191.244 396.187,191.247 396.190,191.667 395.065 C 191.920 394.385,191.944 393.784,191.727 393.567 C 191.509 393.349,191.339 393.803,191.303 394.702 M192.337 399.500 C 192.302 399.885,192.284 400.437,192.297 400.727 C 192.310 401.019,192.070 401.159,191.760 401.040 C 191.173 400.815,190.958 401.803,191.519 402.150 C 192.161 402.547,192.656 401.764,192.688 400.300 C 192.721 398.795,192.455 398.188,192.337 399.500 M192.312 420.418 C 192.214 421.087,192.247 421.706,192.387 421.792 C 192.526 421.878,192.682 421.330,192.733 420.574 C 192.847 418.873,192.555 418.764,192.312 420.418 M199.152 435.513 C 199.021 436.307,199.079 436.681,199.301 436.459 C 199.503 436.257,199.601 435.667,199.519 435.146 C 199.393 434.345,199.337 434.402,199.152 435.513 M235.167 446.900 C 234.942 447.574,235.007 448.881,235.274 449.046 C 235.463 449.162,235.575 448.705,235.523 448.029 C 235.444 446.984,235.295 446.514,235.167 446.900 M235.701 453.000 C 235.705 453.880,235.787 454.193,235.883 453.695 C 235.979 453.198,235.975 452.478,235.875 452.095 C 235.775 451.713,235.696 452.120,235.701 453.000 M201.515 465.600 C 201.452 470.221,201.535 474.001,201.700 474.000 C 201.865 474.000,202.000 470.220,202.000 465.600 C 202.000 460.980,201.917 457.200,201.815 457.200 C 201.714 457.200,201.579 460.980,201.515 465.600 M236.667 457.867 C 236.225 458.309,236.353 469.200,236.800 469.200 C 237.048 469.200,237.200 467.000,237.200 463.400 C 237.200 460.210,237.140 457.600,237.067 457.600 C 236.993 457.600,236.813 457.720,236.667 457.867 M168.800 465.976 C 168.800 466.623,168.942 467.241,169.116 467.348 C 169.290 467.456,169.361 466.927,169.273 466.172 C 169.076 464.491,168.800 464.377,168.800 465.976 M237.366 480.000 C 237.366 484.070,237.425 485.735,237.498 483.700 C 237.571 481.665,237.571 478.335,237.498 476.300 C 237.425 474.265,237.366 475.930,237.366 480.000 M200.575 479.722 C 200.464 480.009,200.426 482.484,200.489 485.222 L 200.604 490.200 200.802 484.699 C 200.997 479.278,200.970 478.691,200.575 479.722 M200.169 507.400 C 200.170 512.020,200.228 513.855,200.299 511.478 C 200.370 509.101,200.369 505.321,200.298 503.078 C 200.227 500.835,200.169 502.780,200.169 507.400 M241.301 519.400 C 241.305 520.280,241.387 520.593,241.483 520.095 C 241.579 519.598,241.575 518.878,241.475 518.495 C 241.375 518.113,241.296 518.520,241.301 519.400 M199.934 522.601 C 199.860 524.031,199.935 525.201,200.100 525.201 C 200.265 525.200,200.400 524.030,200.400 522.600 C 200.400 519.243,200.107 519.243,199.934 522.601 M200.467 541.500 C 200.537 546.370,200.706 545.814,200.892 540.099 C 200.952 538.284,200.865 536.799,200.700 536.799 C 200.535 536.800,200.430 538.915,200.467 541.500 M201.902 560.200 C 202.007 560.750,202.162 561.200,202.247 561.200 C 202.331 561.200,202.400 560.750,202.400 560.200 C 202.400 559.650,202.245 559.200,202.055 559.200 C 201.866 559.200,201.797 559.650,201.902 560.200 M202.131 571.400 C 202.133 572.940,202.205 573.521,202.292 572.691 C 202.379 571.861,202.377 570.601,202.289 569.891 C 202.200 569.181,202.129 569.860,202.131 571.400 M201.595 580.082 C 201.488 581.557,201.545 582.618,201.722 582.440 C 201.899 582.262,201.986 581.055,201.917 579.758 L 201.790 577.400 201.595 580.082 M202.109 586.800 C 202.109 587.790,202.187 588.195,202.282 587.700 C 202.378 587.205,202.378 586.395,202.282 585.900 C 202.187 585.405,202.109 585.810,202.109 586.800 M241.913 600.695 C 243.076 600.776,244.876 600.776,245.913 600.693 C 246.951 600.611,246.000 600.545,243.800 600.546 C 241.600 600.547,240.751 600.614,241.913 600.695 M183.339 601.073 C 183.622 601.355,188.072 601.261,188.367 600.966 C 188.458 600.875,187.303 600.800,185.800 600.800 C 184.297 600.800,183.189 600.923,183.339 601.073 " stroke="none" fill="#58547c" fill-rule="evenodd"></path><path id="path2" d="M230.793 88.519 L 230.985 90.600 231.118 88.846 C 231.191 87.881,231.105 86.944,230.926 86.765 C 230.747 86.585,230.687 87.375,230.793 88.519 M171.400 91.564 C 171.400 92.862,171.532 93.717,171.694 93.463 C 172.081 92.853,172.086 89.200,171.700 89.201 C 171.535 89.202,171.400 90.265,171.400 91.564 M228.060 106.300 C 228.027 108.995,228.135 111.200,228.300 111.200 C 228.465 111.200,228.549 109.445,228.487 107.300 C 228.314 101.313,228.126 100.873,228.060 106.300 M148.800 148.224 C 148.800 148.804,148.973 149.140,149.200 149.000 C 149.420 148.864,149.600 148.403,149.600 147.976 C 149.600 147.549,149.420 147.200,149.200 147.200 C 148.980 147.200,148.800 147.661,148.800 148.224 M150.933 158.358 C 150.950 159.451,151.072 160.279,151.204 160.197 C 151.506 160.011,151.445 156.912,151.133 156.600 C 151.006 156.473,150.916 157.264,150.933 158.358 M249.337 166.600 C 249.339 168.360,249.409 169.030,249.493 168.089 C 249.578 167.149,249.577 165.709,249.491 164.889 C 249.405 164.070,249.336 164.840,249.337 166.600 M135.402 287.197 C 135.267 287.415,135.341 287.910,135.566 288.297 C 135.917 288.900,135.977 288.844,135.988 287.900 C 136.001 286.750,135.816 286.528,135.402 287.197 M249.293 292.800 C 249.293 293.570,249.375 293.885,249.476 293.500 C 249.576 293.115,249.576 292.485,249.476 292.100 C 249.375 291.715,249.293 292.030,249.293 292.800 M142.528 316.000 C 142.528 317.430,142.601 318.015,142.689 317.300 C 142.778 316.585,142.778 315.415,142.689 314.700 C 142.601 313.985,142.528 314.570,142.528 316.000 M142.800 323.200 C 142.800 324.463,142.953 325.153,143.200 325.000 C 143.420 324.864,143.600 324.054,143.600 323.200 C 143.600 322.346,143.420 321.536,143.200 321.400 C 142.953 321.247,142.800 321.937,142.800 323.200 M189.520 329.300 C 189.428 329.575,189.476 331.060,189.625 332.600 L 189.896 335.400 189.872 332.100 C 189.848 328.728,189.810 328.426,189.520 329.300 M189.467 335.867 C 189.054 336.279,189.152 337.677,189.575 337.416 C 189.781 337.288,189.922 336.828,189.889 336.392 C 189.822 335.497,189.829 335.505,189.467 335.867 M193.200 342.176 C 193.200 342.493,193.361 342.852,193.558 342.974 C 193.970 343.229,194.466 342.200,194.106 341.839 C 193.677 341.410,193.200 341.587,193.200 342.176 M192.617 343.972 C 192.344 344.414,192.975 344.892,193.344 344.522 C 193.725 344.142,193.654 343.600,193.224 343.600 C 193.017 343.600,192.744 343.768,192.617 343.972 M192.642 346.235 C 192.243 347.275,192.367 348.078,192.900 347.900 C 193.450 347.717,193.672 346.092,193.188 345.792 C 193.021 345.689,192.775 345.888,192.642 346.235 M189.443 354.233 C 189.293 354.623,189.382 354.806,189.675 354.708 C 190.273 354.509,190.602 353.600,190.076 353.600 C 189.861 353.600,189.576 353.885,189.443 354.233 M192.513 355.220 C 192.537 356.767,192.666 357.049,193.371 357.098 C 194.118 357.150,194.131 357.117,193.500 356.758 C 192.658 356.280,192.557 355.421,193.380 355.737 C 193.766 355.885,193.885 355.767,193.738 355.382 C 193.616 355.064,193.368 354.896,193.187 355.008 C 193.005 355.120,192.774 354.804,192.671 354.306 C 192.569 353.808,192.498 354.219,192.513 355.220 M189.800 360.706 C 189.275 361.092,189.102 362.000,189.553 362.000 C 189.748 362.000,190.001 361.640,190.116 361.200 C 190.351 360.301,190.351 360.301,189.800 360.706 M189.712 365.906 C 189.760 366.575,189.932 367.041,190.094 366.941 C 190.430 366.734,190.287 365.354,189.889 364.955 C 189.743 364.810,189.663 365.237,189.712 365.906 M190.940 370.795 C 191.190 372.378,191.272 372.459,191.916 371.760 C 192.214 371.437,192.256 371.200,192.016 371.200 C 191.787 371.200,191.600 370.941,191.600 370.624 C 191.600 370.307,191.406 369.927,191.169 369.781 C 190.882 369.603,190.806 369.941,190.940 370.795 M191.396 377.207 C 191.258 377.430,190.977 377.509,190.772 377.383 C 190.568 377.256,190.400 377.333,190.400 377.553 C 190.400 377.773,190.580 378.064,190.800 378.200 C 191.020 378.336,191.200 378.807,191.200 379.247 C 191.200 379.687,191.380 379.936,191.600 379.800 C 191.846 379.648,192.012 380.370,192.032 381.676 C 192.071 384.332,192.294 383.780,192.494 380.528 C 192.627 378.379,192.575 378.144,192.094 378.728 C 191.790 379.098,191.647 379.187,191.777 378.928 C 191.907 378.668,191.827 378.340,191.600 378.200 C 191.373 378.060,191.292 377.774,191.421 377.566 C 191.550 377.357,191.823 377.291,192.028 377.417 C 192.232 377.544,192.400 377.457,192.400 377.224 C 192.400 376.684,191.726 376.672,191.396 377.207 M191.200 385.413 C 191.200 386.584,191.820 386.730,192.109 385.626 C 192.226 385.178,192.077 384.762,191.756 384.638 C 191.374 384.492,191.200 384.734,191.200 385.413 M191.303 389.103 C 191.334 389.523,191.594 389.867,191.880 389.867 C 192.565 389.867,192.540 389.414,191.823 388.819 C 191.352 388.428,191.256 388.481,191.303 389.103 M192.493 393.600 C 192.493 394.370,192.575 394.685,192.676 394.300 C 192.776 393.915,192.776 393.285,192.676 392.900 C 192.575 392.515,192.493 392.830,192.493 393.600 M191.303 394.702 C 191.244 396.187,191.247 396.190,191.667 395.065 C 191.920 394.385,191.944 393.784,191.727 393.567 C 191.509 393.349,191.339 393.803,191.303 394.702 M192.337 399.500 C 192.302 399.885,192.284 400.437,192.297 400.727 C 192.310 401.019,192.070 401.159,191.760 401.040 C 191.173 400.815,190.958 401.803,191.519 402.150 C 192.161 402.547,192.656 401.764,192.688 400.300 C 192.721 398.795,192.455 398.188,192.337 399.500 M192.312 420.418 C 192.214 421.087,192.247 421.706,192.387 421.792 C 192.526 421.878,192.682 421.330,192.733 420.574 C 192.847 418.873,192.555 418.764,192.312 420.418 M199.152 435.513 C 199.021 436.307,199.079 436.681,199.301 436.459 C 199.503 436.257,199.601 435.667,199.519 435.146 C 199.393 434.345,199.337 434.402,199.152 435.513 M235.167 446.900 C 234.942 447.574,235.007 448.881,235.274 449.046 C 235.463 449.162,235.575 448.705,235.523 448.029 C 235.444 446.984,235.295 446.514,235.167 446.900 M235.701 453.000 C 235.705 453.880,235.787 454.193,235.883 453.695 C 235.979 453.198,235.975 452.478,235.875 452.095 C 235.775 451.713,235.696 452.120,235.701 453.000 M201.515 465.600 C 201.452 470.221,201.535 474.001,201.700 474.000 C 201.865 474.000,202.000 470.220,202.000 465.600 C 202.000 460.980,201.917 457.200,201.815 457.200 C 201.714 457.200,201.579 460.980,201.515 465.600 M236.667 457.867 C 236.225 458.309,236.353 469.200,236.800 469.200 C 237.048 469.200,237.200 467.000,237.200 463.400 C 237.200 460.210,237.140 457.600,237.067 457.600 C 236.993 457.600,236.813 457.720,236.667 457.867 M168.800 465.976 C 168.800 466.623,168.942 467.241,169.116 467.348 C 169.290 467.456,169.361 466.927,169.273 466.172 C 169.076 464.491,168.800 464.377,168.800 465.976 M237.366 480.000 C 237.366 484.070,237.425 485.735,237.498 483.700 C 237.571 481.665,237.571 478.335,237.498 476.300 C 237.425 474.265,237.366 475.930,237.366 480.000 M200.575 479.722 C 200.464 480.009,200.426 482.484,200.489 485.222 L 200.604 490.200 200.802 484.699 C 200.997 479.278,200.970 478.691,200.575 479.722 M200.169 507.400 C 200.170 512.020,200.228 513.855,200.299 511.478 C 200.370 509.101,200.369 505.321,200.298 503.078 C 200.227 500.835,200.169 502.780,200.169 507.400 M241.301 519.400 C 241.305 520.280,241.387 520.593,241.483 520.095 C 241.579 519.598,241.575 518.878,241.475 518.495 C 241.375 518.113,241.296 518.520,241.301 519.400 M199.934 522.601 C 199.860 524.031,199.935 525.201,200.100 525.201 C 200.265 525.200,200.400 524.030,200.400 522.600 C 200.400 519.243,200.107 519.243,199.934 522.601 M200.467 541.500 C 200.537 546.370,200.706 545.814,200.892 540.099 C 200.952 538.284,200.865 536.799,200.700 536.799 C 200.535 536.800,200.430 538.915,200.467 541.500 M201.902 560.200 C 202.007 560.750,202.162 561.200,202.247 561.200 C 202.331 561.200,202.400 560.750,202.400 560.200 C 202.400 559.650,202.245 559.200,202.055 559.200 C 201.866 559.200,201.797 559.650,201.902 560.200 M202.131 571.400 C 202.133 572.940,202.205 573.521,202.292 572.691 C 202.379 571.861,202.377 570.601,202.289 569.891 C 202.200 569.181,202.129 569.860,202.131 571.400 M201.595 580.082 C 201.488 581.557,201.545 582.618,201.722 582.440 C 201.899 582.262,201.986 581.055,201.917 579.758 L 201.790 577.400 201.595 580.082 M202.109 586.800 C 202.109 587.790,202.187 588.195,202.282 587.700 C 202.378 587.205,202.378 586.395,202.282 585.900 C 202.187 585.405,202.109 585.810,202.109 586.800 M241.913 600.695 C 243.076 600.776,244.876 600.776,245.913 600.693 C 246.951 600.611,246.000 600.545,243.800 600.546 C 241.600 600.547,240.751 600.614,241.913 600.695 M183.339 601.073 C 183.622 601.355,188.072 601.261,188.367 600.966 C 188.458 600.875,187.303 600.800,185.800 600.800 C 184.297 600.800,183.189 600.923,183.339 601.073 " stroke="none" fill="#58547c" fill-rule="evenodd"></path><path id="path3" d="M230.793 88.519 L 230.985 90.600 231.118 88.846 C 231.191 87.881,231.105 86.944,230.926 86.765 C 230.747 86.585,230.687 87.375,230.793 88.519 M171.400 91.564 C 171.400 92.862,171.532 93.717,171.694 93.463 C 172.081 92.853,172.086 89.200,171.700 89.201 C 171.535 89.202,171.400 90.265,171.400 91.564 M228.060 106.300 C 228.027 108.995,228.135 111.200,228.300 111.200 C 228.465 111.200,228.549 109.445,228.487 107.300 C 228.314 101.313,228.126 100.873,228.060 106.300 M148.800 148.224 C 148.800 148.804,148.973 149.140,149.200 149.000 C 149.420 148.864,149.600 148.403,149.600 147.976 C 149.600 147.549,149.420 147.200,149.200 147.200 C 148.980 147.200,148.800 147.661,148.800 148.224 M150.933 158.358 C 150.950 159.451,151.072 160.279,151.204 160.197 C 151.506 160.011,151.445 156.912,151.133 156.600 C 151.006 156.473,150.916 157.264,150.933 158.358 M249.337 166.600 C 249.339 168.360,249.409 169.030,249.493 168.089 C 249.578 167.149,249.577 165.709,249.491 164.889 C 249.405 164.070,249.336 164.840,249.337 166.600 M135.402 287.197 C 135.267 287.415,135.341 287.910,135.566 288.297 C 135.917 288.900,135.977 288.844,135.988 287.900 C 136.001 286.750,135.816 286.528,135.402 287.197 M249.293 292.800 C 249.293 293.570,249.375 293.885,249.476 293.500 C 249.576 293.115,249.576 292.485,249.476 292.100 C 249.375 291.715,249.293 292.030,249.293 292.800 M142.528 316.000 C 142.528 317.430,142.601 318.015,142.689 317.300 C 142.778 316.585,142.778 315.415,142.689 314.700 C 142.601 313.985,142.528 314.570,142.528 316.000 M142.800 323.200 C 142.800 324.463,142.953 325.153,143.200 325.000 C 143.420 324.864,143.600 324.054,143.600 323.200 C 143.600 322.346,143.420 321.536,143.200 321.400 C 142.953 321.247,142.800 321.937,142.800 323.200 M189.520 329.300 C 189.428 329.575,189.476 331.060,189.625 332.600 L 189.896 335.400 189.872 332.100 C 189.848 328.728,189.810 328.426,189.520 329.300 M189.467 335.867 C 189.054 336.279,189.152 337.677,189.575 337.416 C 189.781 337.288,189.922 336.828,189.889 336.392 C 189.822 335.497,189.829 335.505,189.467 335.867 M193.200 342.176 C 193.200 342.493,193.361 342.852,193.558 342.974 C 193.970 343.229,194.466 342.200,194.106 341.839 C 193.677 341.410,193.200 341.587,193.200 342.176 M192.617 343.972 C 192.344 344.414,192.975 344.892,193.344 344.522 C 193.725 344.142,193.654 343.600,193.224 343.600 C 193.017 343.600,192.744 343.768,192.617 343.972 M192.642 346.235 C 192.243 347.275,192.367 348.078,192.900 347.900 C 193.450 347.717,193.672 346.092,193.188 345.792 C 193.021 345.689,192.775 345.888,192.642 346.235 M189.443 354.233 C 189.293 354.623,189.382 354.806,189.675 354.708 C 190.273 354.509,190.602 353.600,190.076 353.600 C 189.861 353.600,189.576 353.885,189.443 354.233 M192.513 355.220 C 192.537 356.767,192.666 357.049,193.371 357.098 C 194.118 357.150,194.131 357.117,193.500 356.758 C 192.658 356.280,192.557 355.421,193.380 355.737 C 193.766 355.885,193.885 355.767,193.738 355.382 C 193.616 355.064,193.368 354.896,193.187 355.008 C 193.005 355.120,192.774 354.804,192.671 354.306 C 192.569 353.808,192.498 354.219,192.513 355.220 M189.800 360.706 C 189.275 361.092,189.102 362.000,189.553 362.000 C 189.748 362.000,190.001 361.640,190.116 361.200 C 190.351 360.301,190.351 360.301,189.800 360.706 M189.712 365.906 C 189.760 366.575,189.932 367.041,190.094 366.941 C 190.430 366.734,190.287 365.354,189.889 364.955 C 189.743 364.810,189.663 365.237,189.712 365.906 M190.940 370.795 C 191.190 372.378,191.272 372.459,191.916 371.760 C 192.214 371.437,192.256 371.200,192.016 371.200 C 191.787 371.200,191.600 370.941,191.600 370.624 C 191.600 370.307,191.406 369.927,191.169 369.781 C 190.882 369.603,190.806 369.941,190.940 370.795 M191.396 377.207 C 191.258 377.430,190.977 377.509,190.772 377.383 C 190.568 377.256,190.400 377.333,190.400 377.553 C 190.400 377.773,190.580 378.064,190.800 378.200 C 191.020 378.336,191.200 378.807,191.200 379.247 C 191.200 379.687,191.380 379.936,191.600 379.800 C 191.846 379.648,192.012 380.370,192.032 381.676 C 192.071 384.332,192.294 383.780,192.494 380.528 C 192.627 378.379,192.575 378.144,192.094 378.728 C 191.790 379.098,191.647 379.187,191.777 378.928 C 191.907 378.668,191.827 378.340,191.600 378.200 C 191.373 378.060,191.292 377.774,191.421 377.566 C 191.550 377.357,191.823 377.291,192.028 377.417 C 192.232 377.544,192.400 377.457,192.400 377.224 C 192.400 376.684,191.726 376.672,191.396 377.207 M191.200 385.413 C 191.200 386.584,191.820 386.730,192.109 385.626 C 192.226 385.178,192.077 384.762,191.756 384.638 C 191.374 384.492,191.200 384.734,191.200 385.413 M191.303 389.103 C 191.334 389.523,191.594 389.867,191.880 389.867 C 192.565 389.867,192.540 389.414,191.823 388.819 C 191.352 388.428,191.256 388.481,191.303 389.103 M192.493 393.600 C 192.493 394.370,192.575 394.685,192.676 394.300 C 192.776 393.915,192.776 393.285,192.676 392.900 C 192.575 392.515,192.493 392.830,192.493 393.600 M191.303 394.702 C 191.244 396.187,191.247 396.190,191.667 395.065 C 191.920 394.385,191.944 393.784,191.727 393.567 C 191.509 393.349,191.339 393.803,191.303 394.702 M192.337 399.500 C 192.302 399.885,192.284 400.437,192.297 400.727 C 192.310 401.019,192.070 401.159,191.760 401.040 C 191.173 400.815,190.958 401.803,191.519 402.150 C 192.161 402.547,192.656 401.764,192.688 400.300 C 192.721 398.795,192.455 398.188,192.337 399.500 M192.312 420.418 C 192.214 421.087,192.247 421.706,192.387 421.792 C 192.526 421.878,192.682 421.330,192.733 420.574 C 192.847 418.873,192.555 418.764,192.312 420.418 M199.152 435.513 C 199.021 436.307,199.079 436.681,199.301 436.459 C 199.503 436.257,199.601 435.667,199.519 435.146 C 199.393 434.345,199.337 434.402,199.152 435.513 M235.167 446.900 C 234.942 447.574,235.007 448.881,235.274 449.046 C 235.463 449.162,235.575 448.705,235.523 448.029 C 235.444 446.984,235.295 446.514,235.167 446.900 M235.701 453.000 C 235.705 453.880,235.787 454.193,235.883 453.695 C 235.979 453.198,235.975 452.478,235.875 452.095 C 235.775 451.713,235.696 452.120,235.701 453.000 M201.515 465.600 C 201.452 470.221,201.535 474.001,201.700 474.000 C 201.865 474.000,202.000 470.220,202.000 465.600 C 202.000 460.980,201.917 457.200,201.815 457.200 C 201.714 457.200,201.579 460.980,201.515 465.600 M236.667 457.867 C 236.225 458.309,236.353 469.200,236.800 469.200 C 237.048 469.200,237.200 467.000,237.200 463.400 C 237.200 460.210,237.140 457.600,237.067 457.600 C 236.993 457.600,236.813 457.720,236.667 457.867 M168.800 465.976 C 168.800 466.623,168.942 467.241,169.116 467.348 C 169.290 467.456,169.361 466.927,169.273 466.172 C 169.076 464.491,168.800 464.377,168.800 465.976 M237.366 480.000 C 237.366 484.070,237.425 485.735,237.498 483.700 C 237.571 481.665,237.571 478.335,237.498 476.300 C 237.425 474.265,237.366 475.930,237.366 480.000 M200.575 479.722 C 200.464 480.009,200.426 482.484,200.489 485.222 L 200.604 490.200 200.802 484.699 C 200.997 479.278,200.970 478.691,200.575 479.722 M200.169 507.400 C 200.170 512.020,200.228 513.855,200.299 511.478 C 200.370 509.101,200.369 505.321,200.298 503.078 C 200.227 500.835,200.169 502.780,200.169 507.400 M241.301 519.400 C 241.305 520.280,241.387 520.593,241.483 520.095 C 241.579 519.598,241.575 518.878,241.475 518.495 C 241.375 518.113,241.296 518.520,241.301 519.400 M199.934 522.601 C 199.860 524.031,199.935 525.201,200.100 525.201 C 200.265 525.200,200.400 524.030,200.400 522.600 C 200.400 519.243,200.107 519.243,199.934 522.601 M200.467 541.500 C 200.537 546.370,200.706 545.814,200.892 540.099 C 200.952 538.284,200.865 536.799,200.700 536.799 C 200.535 536.800,200.430 538.915,200.467 541.500 M201.902 560.200 C 202.007 560.750,202.162 561.200,202.247 561.200 C 202.331 561.200,202.400 560.750,202.400 560.200 C 202.400 559.650,202.245 559.200,202.055 559.200 C 201.866 559.200,201.797 559.650,201.902 560.200 M202.131 571.400 C 202.133 572.940,202.205 573.521,202.292 572.691 C 202.379 571.861,202.377 570.601,202.289 569.891 C 202.200 569.181,202.129 569.860,202.131 571.400 M201.595 580.082 C 201.488 581.557,201.545 582.618,201.722 582.440 C 201.899 582.262,201.986 581.055,201.917 579.758 L 201.790 577.400 201.595 580.082 M202.109 586.800 C 202.109 587.790,202.187 588.195,202.282 587.700 C 202.378 587.205,202.378 586.395,202.282 585.900 C 202.187 585.405,202.109 585.810,202.109 586.800 M241.913 600.695 C 243.076 600.776,244.876 600.776,245.913 600.693 C 246.951 600.611,246.000 600.545,243.800 600.546 C 241.600 600.547,240.751 600.614,241.913 600.695 M183.339 601.073 C 183.622 601.355,188.072 601.261,188.367 600.966 C 188.458 600.875,187.303 600.800,185.800 600.800 C 184.297 600.800,183.189 600.923,183.339 601.073 " stroke="none" fill="#58547c" fill-rule="evenodd"></path><path id="path4" d="M230.793 88.519 L 230.985 90.600 231.118 88.846 C 231.191 87.881,231.105 86.944,230.926 86.765 C 230.747 86.585,230.687 87.375,230.793 88.519 M171.400 91.564 C 171.400 92.862,171.532 93.717,171.694 93.463 C 172.081 92.853,172.086 89.200,171.700 89.201 C 171.535 89.202,171.400 90.265,171.400 91.564 M228.060 106.300 C 228.027 108.995,228.135 111.200,228.300 111.200 C 228.465 111.200,228.549 109.445,228.487 107.300 C 228.314 101.313,228.126 100.873,228.060 106.300 M148.800 148.224 C 148.800 148.804,148.973 149.140,149.200 149.000 C 149.420 148.864,149.600 148.403,149.600 147.976 C 149.600 147.549,149.420 147.200,149.200 147.200 C 148.980 147.200,148.800 147.661,148.800 148.224 M150.933 158.358 C 150.950 159.451,151.072 160.279,151.204 160.197 C 151.506 160.011,151.445 156.912,151.133 156.600 C 151.006 156.473,150.916 157.264,150.933 158.358 M249.337 166.600 C 249.339 168.360,249.409 169.030,249.493 168.089 C 249.578 167.149,249.577 165.709,249.491 164.889 C 249.405 164.070,249.336 164.840,249.337 166.600 M135.402 287.197 C 135.267 287.415,135.341 287.910,135.566 288.297 C 135.917 288.900,135.977 288.844,135.988 287.900 C 136.001 286.750,135.816 286.528,135.402 287.197 M249.293 292.800 C 249.293 293.570,249.375 293.885,249.476 293.500 C 249.576 293.115,249.576 292.485,249.476 292.100 C 249.375 291.715,249.293 292.030,249.293 292.800 M142.528 316.000 C 142.528 317.430,142.601 318.015,142.689 317.300 C 142.778 316.585,142.778 315.415,142.689 314.700 C 142.601 313.985,142.528 314.570,142.528 316.000 M142.800 323.200 C 142.800 324.463,142.953 325.153,143.200 325.000 C 143.420 324.864,143.600 324.054,143.600 323.200 C 143.600 322.346,143.420 321.536,143.200 321.400 C 142.953 321.247,142.800 321.937,142.800 323.200 M189.520 329.300 C 189.428 329.575,189.476 331.060,189.625 332.600 L 189.896 335.400 189.872 332.100 C 189.848 328.728,189.810 328.426,189.520 329.300 M189.467 335.867 C 189.054 336.279,189.152 337.677,189.575 337.416 C 189.781 337.288,189.922 336.828,189.889 336.392 C 189.822 335.497,189.829 335.505,189.467 335.867 M193.200 342.176 C 193.200 342.493,193.361 342.852,193.558 342.974 C 193.970 343.229,194.466 342.200,194.106 341.839 C 193.677 341.410,193.200 341.587,193.200 342.176 M192.617 343.972 C 192.344 344.414,192.975 344.892,193.344 344.522 C 193.725 344.142,193.654 343.600,193.224 343.600 C 193.017 343.600,192.744 343.768,192.617 343.972 M192.642 346.235 C 192.243 347.275,192.367 348.078,192.900 347.900 C 193.450 347.717,193.672 346.092,193.188 345.792 C 193.021 345.689,192.775 345.888,192.642 346.235 M189.443 354.233 C 189.293 354.623,189.382 354.806,189.675 354.708 C 190.273 354.509,190.602 353.600,190.076 353.600 C 189.861 353.600,189.576 353.885,189.443 354.233 M192.513 355.220 C 192.537 356.767,192.666 357.049,193.371 357.098 C 194.118 357.150,194.131 357.117,193.500 356.758 C 192.658 356.280,192.557 355.421,193.380 355.737 C 193.766 355.885,193.885 355.767,193.738 355.382 C 193.616 355.064,193.368 354.896,193.187 355.008 C 193.005 355.120,192.774 354.804,192.671 354.306 C 192.569 353.808,192.498 354.219,192.513 355.220 M189.800 360.706 C 189.275 361.092,189.102 362.000,189.553 362.000 C 189.748 362.000,190.001 361.640,190.116 361.200 C 190.351 360.301,190.351 360.301,189.800 360.706 M189.712 365.906 C 189.760 366.575,189.932 367.041,190.094 366.941 C 190.430 366.734,190.287 365.354,189.889 364.955 C 189.743 364.810,189.663 365.237,189.712 365.906 M190.940 370.795 C 191.190 372.378,191.272 372.459,191.916 371.760 C 192.214 371.437,192.256 371.200,192.016 371.200 C 191.787 371.200,191.600 370.941,191.600 370.624 C 191.600 370.307,191.406 369.927,191.169 369.781 C 190.882 369.603,190.806 369.941,190.940 370.795 M191.396 377.207 C 191.258 377.430,190.977 377.509,190.772 377.383 C 190.568 377.256,190.400 377.333,190.400 377.553 C 190.400 377.773,190.580 378.064,190.800 378.200 C 191.020 378.336,191.200 378.807,191.200 379.247 C 191.200 379.687,191.380 379.936,191.600 379.800 C 191.846 379.648,192.012 380.370,192.032 381.676 C 192.071 384.332,192.294 383.780,192.494 380.528 C 192.627 378.379,192.575 378.144,192.094 378.728 C 191.790 379.098,191.647 379.187,191.777 378.928 C 191.907 378.668,191.827 378.340,191.600 378.200 C 191.373 378.060,191.292 377.774,191.421 377.566 C 191.550 377.357,191.823 377.291,192.028 377.417 C 192.232 377.544,192.400 377.457,192.400 377.224 C 192.400 376.684,191.726 376.672,191.396 377.207 M191.200 385.413 C 191.200 386.584,191.820 386.730,192.109 385.626 C 192.226 385.178,192.077 384.762,191.756 384.638 C 191.374 384.492,191.200 384.734,191.200 385.413 M191.303 389.103 C 191.334 389.523,191.594 389.867,191.880 389.867 C 192.565 389.867,192.540 389.414,191.823 388.819 C 191.352 388.428,191.256 388.481,191.303 389.103 M192.493 393.600 C 192.493 394.370,192.575 394.685,192.676 394.300 C 192.776 393.915,192.776 393.285,192.676 392.900 C 192.575 392.515,192.493 392.830,192.493 393.600 M191.303 394.702 C 191.244 396.187,191.247 396.190,191.667 395.065 C 191.920 394.385,191.944 393.784,191.727 393.567 C 191.509 393.349,191.339 393.803,191.303 394.702 M192.337 399.500 C 192.302 399.885,192.284 400.437,192.297 400.727 C 192.310 401.019,192.070 401.159,191.760 401.040 C 191.173 400.815,190.958 401.803,191.519 402.150 C 192.161 402.547,192.656 401.764,192.688 400.300 C 192.721 398.795,192.455 398.188,192.337 399.500 M192.312 420.418 C 192.214 421.087,192.247 421.706,192.387 421.792 C 192.526 421.878,192.682 421.330,192.733 420.574 C 192.847 418.873,192.555 418.764,192.312 420.418 M199.152 435.513 C 199.021 436.307,199.079 436.681,199.301 436.459 C 199.503 436.257,199.601 435.667,199.519 435.146 C 199.393 434.345,199.337 434.402,199.152 435.513 M235.167 446.900 C 234.942 447.574,235.007 448.881,235.274 449.046 C 235.463 449.162,235.575 448.705,235.523 448.029 C 235.444 446.984,235.295 446.514,235.167 446.900 M235.701 453.000 C 235.705 453.880,235.787 454.193,235.883 453.695 C 235.979 453.198,235.975 452.478,235.875 452.095 C 235.775 451.713,235.696 452.120,235.701 453.000 M201.515 465.600 C 201.452 470.221,201.535 474.001,201.700 474.000 C 201.865 474.000,202.000 470.220,202.000 465.600 C 202.000 460.980,201.917 457.200,201.815 457.200 C 201.714 457.200,201.579 460.980,201.515 465.600 M236.667 457.867 C 236.225 458.309,236.353 469.200,236.800 469.200 C 237.048 469.200,237.200 467.000,237.200 463.400 C 237.200 460.210,237.140 457.600,237.067 457.600 C 236.993 457.600,236.813 457.720,236.667 457.867 M168.800 465.976 C 168.800 466.623,168.942 467.241,169.116 467.348 C 169.290 467.456,169.361 466.927,169.273 466.172 C 169.076 464.491,168.800 464.377,168.800 465.976 M237.366 480.000 C 237.366 484.070,237.425 485.735,237.498 483.700 C 237.571 481.665,237.571 478.335,237.498 476.300 C 237.425 474.265,237.366 475.930,237.366 480.000 M200.575 479.722 C 200.464 480.009,200.426 482.484,200.489 485.222 L 200.604 490.200 200.802 484.699 C 200.997 479.278,200.970 478.691,200.575 479.722 M200.169 507.400 C 200.170 512.020,200.228 513.855,200.299 511.478 C 200.370 509.101,200.369 505.321,200.298 503.078 C 200.227 500.835,200.169 502.780,200.169 507.400 M241.301 519.400 C 241.305 520.280,241.387 520.593,241.483 520.095 C 241.579 519.598,241.575 518.878,241.475 518.495 C 241.375 518.113,241.296 518.520,241.301 519.400 M199.934 522.601 C 199.860 524.031,199.935 525.201,200.100 525.201 C 200.265 525.200,200.400 524.030,200.400 522.600 C 200.400 519.243,200.107 519.243,199.934 522.601 M200.467 541.500 C 200.537 546.370,200.706 545.814,200.892 540.099 C 200.952 538.284,200.865 536.799,200.700 536.799 C 200.535 536.800,200.430 538.915,200.467 541.500 M201.902 560.200 C 202.007 560.750,202.162 561.200,202.247 561.200 C 202.331 561.200,202.400 560.750,202.400 560.200 C 202.400 559.650,202.245 559.200,202.055 559.200 C 201.866 559.200,201.797 559.650,201.902 560.200 M202.131 571.400 C 202.133 572.940,202.205 573.521,202.292 572.691 C 202.379 571.861,202.377 570.601,202.289 569.891 C 202.200 569.181,202.129 569.860,202.131 571.400 M201.595 580.082 C 201.488 581.557,201.545 582.618,201.722 582.440 C 201.899 582.262,201.986 581.055,201.917 579.758 L 201.790 577.400 201.595 580.082 M202.109 586.800 C 202.109 587.790,202.187 588.195,202.282 587.700 C 202.378 587.205,202.378 586.395,202.282 585.900 C 202.187 585.405,202.109 585.810,202.109 586.800 M241.913 600.695 C 243.076 600.776,244.876 600.776,245.913 600.693 C 246.951 600.611,246.000 600.545,243.800 600.546 C 241.600 600.547,240.751 600.614,241.913 600.695 M183.339 601.073 C 183.622 601.355,188.072 601.261,188.367 600.966 C 188.458 600.875,187.303 600.800,185.800 600.800 C 184.297 600.800,183.189 600.923,183.339 601.073 " stroke="none" fill="#58547c" fill-rule="evenodd"></path></g></svg>