<svg id="loading-svg" xmlns="http://www.w3.org/2000/svg" xmlns:xlink="http://www.w3.org/1999/xlink" style="overflow:hidden;background:white;width:300;margin:auto;-webkit-clip-path: circle(122px at center);clip-path: circle(122px at center);" width="560" height="315"  viewBox="0 0 261.3 226.8">
<style> 
 .st1,  .st3,  .st4 {
	 fill: #fff9e1;
	 stroke: #2e3897;
	 stroke-width: 2;
	 stroke-miterlimit: 10;
}
 .st3,  .st4,  .st0 {
	 fill: #b3d6e9;
}
 .st4 {
	 fill: #fff;
}
 .st6 {
	 fill: #2e3897;
}
 .st7 {
	 fill: none;
	 stroke: #2e3897;
	 stroke-width: 2;
	 stroke-miterlimit: 10;
}
 .st8 {
	 fill: #fff;
}
 .st10 {
	 fill: #e8444e;
}
 .st17 {
	 fill: none;
	 stroke: #2e3897;
	 stroke-width: 2;
	 stroke-linecap: round;
	 stroke-linejoin: round;
	 stroke-miterlimit: 10;
}
.st19 {
	 fill: #f1848a;
}
 .st20 {
	 fill: none;
	 stroke: #fff;
	 stroke-width: 2;
	 stroke-miterlimit: 10;
}
 .window {
	 fill: #86b8ce;
	 stroke-width: 2px;
	 stroke: #2e3897;
}
#circulo {
	 stroke-dasharray: 280 20;
	 stroke-dashoffset: 300;
	 animation: borderanimation 1s ease-in-out infinite;
}
 #cheque {
	 transform: translateX(-100%);
	 animation: rightmove 4s linear infinite forwards;
}
#hamburguesa, #loading-svg #cubos {
	 transform: translateY(-100%);
	 animation: moveDown 4s 1s linear infinite forwards;
}
 #bus {
	 transform: translateX(-100%);
	 animation: move 4s 2s linear infinite forwards;
}
 #cubos {
	 animation-delay: 3s;
}
 @keyframes rightmove {
	 20%, 30% {
		 transform: translateX(0);
 opacity:1;
	}
	 40%, 100% {
		 transform: translateX(100%);
opacity:0;
	}
}
 @keyframes moveDown {
	 20%, 30% {
		 transform: translateY(0);
 opacity:1;
	}
	 40%, 100% {
		 transform: translateY(100%);
opacity:0;
	}
}
 @keyframes move {
	 20%, 40% {
		 transform: translateX(0);
		 opacity:1;
	}
	 40%, 100% {
		 transform: translateX(100%);
		opacity:0;
	}
}
 @keyframes borderanimation {
	 to {
		 stroke-dashoffset: 0;
	}
}

.bootstrap-button{
	box-shadow:none;
	color:#333 !important;
}
.footer-device{
display:none;
}
</style>
<path id="fondo" class="st0" d="M12.8 7.1h235.6v214H12.8z"/><g id="hamburguesa"><path id="pan2" class="st1" d="M153.9 153.2h-46.4c-5.2 0-9.5-4.3-9.5-9.5V141c0-1 .9-1.9 1.9-1.9h61.6c1 0 1.9.9 1.9 1.9v2.8c-.1 5.1-4.3 9.4-9.5 9.4z"/><path id="carne" d="M98 126.4h65.2c3.3 0 6 2.7 6 6s-2.7 6-6 6H98c-3.3 0-6-2.7-6-6 .1-3.3 2.8-6 6-6z" fill="#f1848a" stroke="#2e3897" stroke-width="2" stroke-miterlimit="10"/><path id="salsa" class="st3" d="M90.4 131.9c3.3 8.3 15-3.2 21.5 0 12 5.9 15.7-3.4 22.1 0 11.7 6.1 18.6-3.9 24.7 0 9 5.8 12 0 12 0s3.2-6.2-7.6-6H99.6s-11.6 0-9.2 6z"/><path id="queso" class="st4" d="M95.2 122.8h70.9c1 0 1.9.9 1.9 1.9 0 1-.9 1.9-1.9 1.9h-11.6l-8.4 6-8.4-6H95.2c-1 0-1.9-.9-1.9-1.9 0-1 .9-1.9 1.9-1.9z"/><path id="lechuga" d="M96 117.6h69.3c1.5 0 2.7 1.2 2.7 2.7 0 1.5-1.2 2.7-2.7 2.7H96c-1.5 0-2.7-1.2-2.7-2.7 0-1.5 1.2-2.7 2.7-2.7z" fill="#d4efe9" stroke="#2e3897" stroke-width="2" stroke-miterlimit="10"/><path id="pan"  class="st1" d="M160.5 117c1.6 0 2.8-1.3 2.7-2.9-1.5-16.7-15.5-24.5-32.6-24.5S99.5 97.4 98 114.1c-.1 1.5 1.1 2.9 2.7 2.9h59.8z"/><circle class="st6" cx="136.1" cy="96.5" r="1.4"/><circle class="st6" cx="145.4" cy="99.2" r="1.4"/><circle class="st6" cx="139.5" cy="102.5" r="1.4"/><path id="band" class="st7" d="M118.2 98.6l-6.1-40.9"/><path id="bande" class="st8" d="M111.1 60.7l24.4 3.5-21.7 14.4z"/><g id="banderin"><circle cx="118" cy="68" r="4" fill="#d4efe9" /><path class="st10" d="M114 72.8c2.3-1.7 4.2-4.1 5.5-6.1-.7 3.6-3.1 5.8-5.5 6.1"/></g></g><g id="cubos"><g id="a"><path d="M148 110.9h-40.6c-3.8 0-6.9-3.1-6.9-6.9V63.4c0-3.8 3.1-6.9 6.9-6.9H148c3.8 0 6.9 3.1 6.9 6.9V104c0 3.8-3.1 6.9-6.9 6.9z" fill="#f1848a" stroke="#2e3897" stroke-width="2" stroke-linecap="round" stroke-linejoin="round" stroke-miterlimit="10"/><path class="st6" d="M123.6 70.4c.1-.2.3-.4.5-.6.2-.2.5-.3.8-.3h5.4c.3 0 .5.1.8.3s.4.4.5.6L143 96.8c.1.2.1.5-.1.7-.1.3-.4.4-.8.4h-6.6c-.3 0-.6-.1-.8-.3l-.6-.6-1-2.3c-.1-.2-.3-.4-.6-.6-.2-.2-.5-.3-.8-.3h-8.2c-.3 0-.6.1-.8.3-.2.2-.4.4-.5.6l-1.1 2.3c-.1.2-.3.4-.5.6-.2.2-.5.3-.8.3h-6.7c-.1 0-.3 0-.4-.1-.1-.1-.3-.1-.3-.2s-.1-.2-.2-.4c0-.2 0-.3.1-.5l11.3-26.3zm2.3 16.9h3.5c.3 0 .4-.1.6-.3.1-.2.1-.4 0-.6-.3-.6-.6-1.4-.9-2.3-.4-.9-.7-1.7-1-2.4-.1-.2-.2-.3-.3-.3-.1 0-.2.1-.3.3l-1.9 4.7c-.1.2-.1.4 0 .6-.1.2 0 .3.3.3z"/></g><g id="b"><path d="M118.1 166.3H77.4c-3.8 0-6.9-3.1-6.9-6.9v-40.6c0-3.8 3.1-6.9 6.9-6.9H118c3.8 0 6.9 3.1 6.9 6.9v40.6c.1 3.8-3 6.9-6.8 6.9z" fill="#fff9e1" stroke="#2e3897" stroke-width="2" stroke-linecap="round" stroke-linejoin="round" stroke-miterlimit="10"/><path class="st6" d="M105.7 138.7c.4.2.8.5 1.2.9.4.3.8.8 1.1 1.2.3.5.6 1.1.9 1.7.2.6.3 1.4.3 2.2 0 1.7-.3 3.1-.8 4.2s-1.2 2-2.2 2.6c-.9.7-1.9 1.1-3.1 1.4-1.2.3-2.4.4-3.7.4H87.2c-.3 0-.5-.1-.7-.3s-.3-.4-.3-.7v-26.6c0-.3.1-.5.3-.7s.4-.3.7-.3h11.7c1.2 0 2.4.1 3.6.4 1.1.3 2.1.7 3 1.3.9.6 1.6 1.4 2.1 2.4s.8 2.2.8 3.7c0 1.2-.3 2.2-.9 3-.6.9-1.2 1.5-1.9 2-.5.6-.4.9.1 1.2zm-10.9-3h3.6c.5 0 .9-.2 1.2-.6.3-.4.5-.8.5-1.3s-.2-.9-.6-1.2c-.4-.3-.7-.5-1.1-.5h-3.7c-.3 0-.5.1-.7.3s-.3.4-.3.7v1.8c0 .3.1.5.3.7s.6.1.8.1zm4.1 6.4h-4.1c-.3 0-.5.1-.7.3s-.3.4-.3.7v2.2c0 .3.1.5.3.7s.4.3.7.3h4.3c.5 0 .9-.2 1.3-.6.4-.4.6-.8.6-1.4 0-.5-.2-.9-.6-1.4-.3-.6-.8-.8-1.5-.8z"/></g><g id="c"><path d="M183.9 166.3h-40.6c-3.8 0-6.9-3.1-6.9-6.9v-40.6c0-3.8 3.1-6.9 6.9-6.9h40.6c3.8 0 6.9 3.1 6.9 6.9v40.6c0 3.8-3.1 6.9-6.9 6.9z" fill="#d4efe9" stroke="#2e3897" stroke-width="2" stroke-linecap="round" stroke-linejoin="round" stroke-miterlimit="10"/><path class="st6" d="M177.9 145.7c-.8 1.2-1.6 2.3-2.5 3.3-.9 1-1.9 1.8-3 2.5s-2.4 1.2-3.7 1.6c-1.4.4-2.9.6-4.5.6-2.1 0-4-.4-5.8-1.2s-3.4-1.8-4.8-3.1-2.4-2.9-3.2-4.7c-.8-1.8-1.2-3.7-1.2-5.7s.4-3.9 1.2-5.7c.8-1.8 1.8-3.3 3.2-4.7 1.4-1.3 2.9-2.4 4.8-3.1 1.8-.8 3.8-1.2 5.8-1.2 1.7 0 3.2.2 4.6.6 1.4.4 2.6.9 3.7 1.6 1.1.7 2.1 1.5 3 2.5.9 1 1.7 2.1 2.5 3.3.1.2.2.4.1.7-.1.2-.2.4-.5.5l-5.5 2.2c-.3.1-.5.1-.8 0-.3-.1-.5-.3-.6-.5-.8-1.2-1.7-2.1-2.7-2.7-1.1-.6-2.3-1-3.8-1-1 0-1.9.2-2.8.6-.9.4-1.6 1-2.3 1.7-.6.7-1.2 1.5-1.5 2.4-.4.9-.5 1.8-.5 2.8 0 1 .2 1.9.5 2.8.4.9.9 1.7 1.5 2.4s1.4 1.2 2.3 1.6c.9.4 1.8.6 2.8.6 1.4 0 2.7-.3 3.9-1 1.2-.7 2.1-1.6 2.7-2.7.1-.2.3-.4.6-.5.2-.1.5-.1.8 0l5.5 2.2c.2.1.4.3.5.5-.2.4-.2.6-.3.8z"/></g></g><g id="cheque"><path class="st4" d="M211.1 148.7H50.2c-.9 0-1.6-.7-1.6-1.6V81.7c0-.9.7-1.6 1.6-1.6H211c.9 0 1.6.7 1.6 1.6V147c.1.9-.7 1.7-1.5 1.7z"/><path class="st6" d="M48.6 80.1h58.9v68.5H48.6z"/><path fill="#e05452" d="M48.2 131.9h59.3v4H48.2z"/><path d="M107.7 118.8s53.7-4.4 81.6 29.9h-81.6v-29.9z" fill="#d4efe9"/><path d="M212.6 118.8s-52.8-10.4-76.3 29.9h76.4l-.1-29.9z" fill="#8ee2e0"/><g id="text_34_"><path class="st17" d="M117.2 110.7h51.6M117.2 122.1h59.4M117.2 133.5h36.5"/></g><path class="st7" d="M211.1 148.7H50.2c-.9 0-1.6-.7-1.6-1.6V81.7c0-.9.7-1.6 1.6-1.6H211c.9 0 1.6.7 1.6 1.6V147c.1.9-.7 1.7-1.5 1.7z"/>
  <g><path class="st6" d="M157.4 95.3c-.2.5-.5.9-.9 1.1l-.9.3c-.2 0-.4 0-.6.1-.4 0-.9 0-1.3-.1-.2-.1-.4-.1-.6-.3-.1-.1-.2-.2-.3-.2l-.1-.1c-.2-.2-.4-.4-.5-.6-.1-.2-.2-.4-.2-.7v-.5c0-.3.2-.5.4-.6h.1c.1 0 .2-.1.4-.1h.5s.1 0 .1.1l.3.3c.1.2.3.4.5.5h.1c.5.1 1-.3 1-.7v-.6c0-.1 0-.2-.1-.3-.1-.3-.2-.5-.5-.7-.2-.1-.4-.2-.6-.2h-.5c-.2 0-.4-.2-.5-.4 0-.1 0-.2-.1-.4v-.7c0-.3.2-.5.4-.5.2-.1.5 0 .7-.1.2-.1.4-.1.5-.2l.1-.1c.1-.2.2-.4.3-.7v-.5c0-.1-.1-.2-.1-.3-.1-.4-.5-.5-.8-.4-.2.1-.3.2-.4.3-.1.1-.2.3-.3.4-.1.1-.3.2-.5.2-.3 0-.6 0-.9-.1-.2 0-.3-.1-.3-.2-.1-.2-.1-.4 0-.7.1-.3.3-.7.5-1 .2-.3.5-.6.9-.7.3-.2.7-.2 1.1-.3.4 0 .8 0 1.2.1.2 0 .4.1.6.3.1.1.2.1.3.2.1.1.2.2.3.4.3.4.5.9.6 1.4v.9c0 .3-.1.7-.2 1l-.3.6c-.1.1-.1.2-.1.3 0 .1 0 .1.1.2.2.1.3.3.4.5.1.2.2.4.2.6.1.4.2.8.2 1.2v.7c0 .4-.1.9-.2 1.3zM163.7 85.6h.3c.1 0 .2.1.3.2.1.2.1.4.1.7v.6c-.1.2-.2.4-.4.5-.1 0-.2.1-.3.1-.2 0-.4 0-.6.1-.3 0-.6.1-.9.1-.1 0-.2.1-.2.2 0 .2-.1.3-.1.5 0 .1 0 .2.2.2h.2c.3 0 .6 0 .9.1.2.1.3.1.5.2s.4.2.6.5c.1.1.2.3.3.4.2.3.3.7.4 1.1.1.6.1 1.3.1 1.9-.1.6-.2 1.1-.4 1.7-.1.2-.1.3-.2.5-.1.3-.3.5-.4.7-.2.2-.4.4-.7.5-.4.2-.9.3-1.4.2-.5 0-1.1-.2-1.6-.5-.2-.1-.4-.3-.6-.5-.1-.1-.2-.2-.2-.3-.1-.2-.2-.3-.2-.5v-.6c0-.2.1-.3.2-.4l.4-.4c.1-.1.4-.1.6 0l.3.3c.2.3.4.5.7.7.1 0 .2 0 .2.1.2 0 .5 0 .7-.1.2-.1.3-.3.4-.4.1-.1.1-.3.1-.4.1-.6.1-1.2-.1-1.8 0-.1-.1-.2-.1-.2-.1-.3-.6-.5-.9-.4-.1 0-.2.1-.3.2-.1.1-.3.2-.5.2h-1c-.1 0-.3-.1-.4-.2-.1-.1-.1-.2-.2-.3-.1-.1-.1-.3-.1-.4v-.5c.1-.4.1-.8.2-1.2.1-.4.2-.9.2-1.3 0-.3.1-.6.2-.9 0-.2.1-.4.2-.6 0-.1.1-.1.2-.1.2 0 .4-.1.6-.1h1.3c.4-.4.9-.4 1.4-.4zM172.6 92.8c0 .3 0 .6-.1.9 0 .2-.1.5-.2.7-.1.4-.3.8-.6 1.1l-.4.4c-.1.1-.2.2-.3.2-.1 0-.2.1-.3.1-.5.1-1 .2-1.4.1-.2 0-.4-.1-.5-.1-.1 0-.2-.1-.4-.1 0 0-.1 0-.1-.1-.3-.2-.6-.5-.8-.8-.2-.3-.4-.6-.5-.9-.1-.2-.2-.4-.2-.6 0-.2-.1-.4-.1-.7 0-.5-.1-1-.1-1.4v-1.2c0-.3.1-.6.1-.9 0-.2 0-.4.1-.6.2-.8.5-1.5.9-2.2.1-.2.3-.4.5-.6.4-.3.8-.5 1.3-.7h1.1l.6.3s.1 0 .1.1c.2.2.4.5.6.7 0 .1.1.1.1.2l.3.6c.1.1.1.3.2.4.1.3.2.6.2 1 .1.5.1 1 .2 1.4v1.4c-.2.6-.2 1-.3 1.3zm-2-3.6c0-.3-.2-.6-.3-.9-.1-.1-.2-.3-.3-.3h-.4c-.2 0-.3.1-.4.2-.1.2-.2.4-.2.6-.2.6-.3 1.3-.3 2v1.4c0 .3 0 .6.1.9.1.2.1.5.2.7.1.2.3.3.5.3h.4c.2 0 .3-.1.4-.2l.1-.1c.1-.3.2-.5.2-.8 0-.1 0-.2.1-.3.1-.4.1-.7.1-1.1v-1.3c0-.3-.1-.7-.2-1.1zM175.7 94.7c.1.1.2.2.3.4.1.3.1.6 0 .9-.1.4-.3.6-.7.7-.4.1-.7 0-1-.2-.1-.1-.2-.2-.3-.4-.1-.2-.1-.5 0-.7.1-.2.2-.3.3-.5.1-.2.3-.3.6-.3h.1c.3-.2.5-.1.7.1zM183.3 92.8c0 .3 0 .6-.1.9 0 .2-.1.5-.2.7-.1.4-.3.8-.6 1.1l-.4.4c-.1.1-.2.2-.3.2-.1 0-.2.1-.3.1-.5.1-1 .2-1.4.1-.2 0-.4-.1-.5-.1-.1 0-.2-.1-.4-.1 0 0-.1 0-.1-.1-.3-.2-.6-.5-.8-.8-.2-.3-.4-.6-.5-.9-.1-.2-.2-.4-.2-.6 0-.2-.1-.4-.1-.7 0-.5-.1-1-.1-1.4v-1.2c0-.3.1-.6.1-.9 0-.2 0-.4.1-.6.2-.8.5-1.5.9-2.2.1-.2.3-.4.5-.6.4-.3.8-.5 1.3-.7h1.1l.6.3s.1 0 .1.1c.2.2.4.5.6.7 0 .1.1.1.1.2l.3.6c.1.1.1.3.2.4.1.3.2.6.2 1 .1.5.1 1 .2 1.4v1.4c-.2.6-.2 1-.3 1.3zm-2-3.6c0-.3-.2-.6-.3-.9-.1-.1-.2-.3-.3-.3h-.4c-.2 0-.3.1-.4.2-.1.2-.2.4-.2.6-.2.6-.3 1.3-.3 2v1.4c0 .3 0 .6.1.9.1.2.1.5.2.7.1.2.3.3.5.3h.4c.2 0 .3-.1.4-.2l.1-.1c.1-.3.2-.5.2-.8 0-.1 0-.2.1-.3.1-.4.1-.7.1-1.1v-1.3c0-.3-.1-.7-.2-1.1zM190.6 92.8c0 .3 0 .6-.1.9 0 .2-.1.5-.2.7-.1.4-.3.8-.6 1.1l-.4.4c-.1.1-.2.2-.3.2-.1 0-.2.1-.3.1-.5.1-1 .2-1.4.1-.2 0-.4-.1-.5-.1-.1 0-.2-.1-.4-.1 0 0-.1 0-.1-.1-.3-.2-.6-.5-.8-.8-.2-.3-.4-.6-.5-.9-.1-.2-.2-.4-.2-.6 0-.2-.1-.4-.1-.7 0-.5-.1-1-.1-1.4v-1.2c0-.3.1-.6.1-.9 0-.2 0-.4.1-.6.2-.8.5-1.5.9-2.2.1-.2.3-.4.5-.6.4-.3.8-.5 1.3-.7h1.1l.6.3s.1 0 .1.1c.2.2.4.5.6.7 0 .1.1.1.1.2l.3.6c.1.1.1.3.2.4.1.3.2.6.2 1 .1.5.1 1 .2 1.4v1.4c-.3.6-.3 1-.3 1.3zm-2-3.6c0-.3-.2-.6-.3-.9-.1-.1-.2-.3-.3-.3h-.4c-.2 0-.3.1-.4.2-.1.2-.2.4-.2.6-.2.6-.3 1.3-.3 2v1.4c0 .3 0 .6.1.9.1.2.1.5.2.7.1.2.3.3.5.3h.4c.2 0 .3-.1.4-.2l.1-.1c.1-.3.2-.5.2-.8 0-.1 0-.2.1-.3.1-.4.1-.7.1-1.1v-1.3c-.1-.3-.2-.7-.2-1.1zM191.9 87.6c0-.1.1-.2.1-.3l.2-.2c.2-.2.2-.5 0-.7-.1-.1-.1-.2-.2-.2-.2-.2-.2-.7 0-1l.3-.3c.1-.1.2-.2.3-.2.2-.1.4-.1.7 0 .1 0 .2.1.2.2.1 0 .1.1.2.2h.1c.1 0 .3 0 .4-.2.2-.2.4-.2.7-.2.2 0 .3.1.4.2.1.1.2.2.4.3.2.2.2.7 0 1-.1.1-.2.2-.3.4-.1.1-.1.2 0 .3 0 .1.1.2.2.4l.2.2c0 .1.1.1.1.2v.2c0 .3-.1.6-.4.8-.1.1-.2.2-.3.2-.1.1-.2.1-.3.1-.1 0-.3 0-.4-.1-.1 0-.2-.1-.2-.2l-.1-.1c-.1-.1-.2-.1-.3-.1h-.1l-.1.1c-.2.2-.4.3-.6.2-.3 0-.5-.1-.7-.2-.2-.1-.3-.3-.4-.4V88c-.1-.3-.1-.4-.1-.4zM202.6 88.9c.2 0 .4.2.4.4.1.3.1.5.1.8 0 .1 0 .2-.1.3-.1.2-.2.3-.4.4-.3.1-.6.1-1 .1h-.7c-.2 0-.3.3-.2.4 0 .1.1.1.2.1h1.5c.2 0 .4.1.6.2 0 0 .1.1.1.2.1.1.1.3.1.4v.6c-.1.2-.2.3-.3.4 0 0-.1.1-.2.1h-.3-.2c-.2 0-.5 0-.7.1-.2 0-.2.1-.2.3 0 .1.1.3.2.3.2.1.3.2.5.3.1.1.2.1.3.1.3.1.7.1 1 0 .2 0 .4-.2.5-.3.1-.1.3-.2.4-.1.1 0 .2 0 .3.1.2.1.3.2.4.4.2.3.2.9-.1 1.2l-.1.1c-.5.3-1 .6-1.5.7-.3 0-.7.1-1 .1-.3 0-.5 0-.8-.1l-.9-.3c-.2-.1-.4-.3-.6-.5-.2-.2-.4-.5-.6-.8-.2-.3-.3-.6-.5-.9 0-.1-.1-.2-.1-.3 0-.1-.1-.2-.2-.2-.1-.1-.3-.1-.4-.1-.3 0-.4-.1-.5-.4 0-.2-.1-.3-.1-.5v-.7c0-.1.1-.1.1-.2.1-.1.1-.1.2-.1h.2c.1 0 .1-.1.1-.2 0-.2-.1-.3-.2-.3-.2 0-.3-.2-.3-.4v-.1c-.1-.2-.1-.4-.1-.6 0-.2 0-.3.1-.4 0-.1 0-.2.1-.2.1-.1.2-.2.4-.2h.2c.2 0 .2-.1.3-.2 0-.1.1-.3.1-.4.1-.2.2-.5.3-.7.1-.3.2-.5.4-.7.1-.2.2-.3.4-.4.2-.2.5-.4.7-.6.1-.1.3-.2.4-.2.3-.1.5-.2.8-.3.2-.1.4-.1.7-.1.4 0 .7.1 1.1.3.3.1.6.3.8.6l.1.1c0 .1.1.1.1.2.2.2.3.5.2.8 0 .1-.1.3-.2.4-.1.1-.2.2-.4.3 0 0-.1 0-.1.1-.2.1-.4.1-.6 0-.1 0-.1-.1-.2-.1-.1-.1-.2-.2-.4-.2h-.1c-.3-.1-.5-.1-.8 0-.1 0-.1 0-.2.1-.3.1-.6.3-.8.5-.1.1-.2.3-.2.4v.2c0 .1.1.2.2.2H201.5c.7-.5.9-.5 1.1-.5z"/>
  </g></g><g id="bus"><path class="st4" d="M147.6 106.1h-36.2c-1.7 0-3-1.4-3-3v-56c0-1.7 1.4-3 3-3h36.2c1.7 0 3 1.4 3 3v56.1c0 1.6-1.3 2.9-3 2.9z"/><path class="st19" d="M109 81.1h40.8v1.4H109z"/><path class="st0" d="M128.1 102.1h-5.9c-.4 0-.7-.3-.7-.7v-7.6c0-.4.3-.7.7-.7h5.9c.4 0 .7.3.7.7v7.6c-.1.4-.4.7-.7.7z"/><path class="st20" d="M126.1 93v9.2M124.2 93v9.2"/><path d="M126.7 98.8h-3.1c-.6 0-1.1-.5-1.1-1.1v-.2c0-.6.5-1.1 1.1-1.1h3.1c.6 0 1.1.5 1.1 1.1v.2c0 .6-.5 1.1-1.1 1.1z" fill="#b3d6e9" stroke="#fff" stroke-width="2" stroke-miterlimit="10"/><g id="text_32_"><path class="st17" d="M116.1 67.9H146M127.6 72H146"/></g><g><path class="st6" d="M136.4 94c.2.2.3.5.4.7.1.3.1.6.1.9 0 .3 0 .6-.1.9-.1.3-.2.5-.4.7-.2.3-.2.7.1 1 .3.2.7.2 1-.1.3-.3.5-.7.6-1.1.1-.4.2-.8.2-1.3s-.1-.9-.2-1.3-.3-.8-.6-1.1c-.2-.3-.7-.4-1-.1-.3.1-.4.5-.1.8zM138.7 92.7c.5.8.8 1.8.8 2.9 0 1.1-.3 2-.8 2.9-.2.3-.1.7.2.9.3.2.7.1.9-.2.6-1.1 1-2.3 1-3.6 0-1.3-.4-2.6-1-3.6-.2-.3-.6-.4-.9-.2-.3.2-.4.6-.2.9zM141.2 91.4c.7 1.2 1.1 2.7 1.1 4.2s-.4 3-1.1 4.2c-.2.3-.1.8.2.9.3.2.8.1.9-.2.8-1.4 1.3-3.1 1.3-4.9 0-1.8-.5-3.5-1.3-4.9-.2-.3-.6-.4-.9-.2-.3.2-.4.6-.2.9z"/><path class="st6" d="M143.7 90.1c.9 1.6 1.5 3.5 1.5 5.5s-.5 3.9-1.5 5.5c-.2.3-.1.8.3.9.3.2.8.1.9-.3 1-1.8 1.6-3.9 1.6-6.2 0-2.3-.6-4.4-1.6-6.2-.2-.3-.6-.4-.9-.3-.3.4-.5.8-.3 1.1z"/></g><g><path class="st8" d="M224.5 158l-1.4-32.1c0-2.7-1.3-4.5-3.3-4.5H44.5c-7.6 0-9.4-.3-9.4 7.3l-1.4 31.7c0 .9.7 1.6 1.6 1.6l7.5 2.8h27.6c-.1-.5-.1-1-.1-1.6 0-5.3 4.3-9.7 9.7-9.7 5.3 0 9.7 4.3 9.7 9.7 0 .5-.1 1.1-.1 1.6H168c-.1-.5-.1-1-.1-1.6 0-5.3 4.3-9.7 9.7-9.7 5.3 0 9.7 4.3 9.7 9.7 0 .5-.1 1.1-.1 1.6H223c.9 0 1.6-.7 1.6-1.6v-5.8.6z"/><path class="st4" d="M178.2 156.7c-3.6 0-6.5 2.9-6.5 6.5s2.9 6.5 6.5 6.5 6.5-2.9 6.5-6.5-2.9-6.5-6.5-6.5zM80.3 156.7c-3.6 0-6.5 2.9-6.5 6.5s2.9 6.5 6.5 6.5 6.5-2.9 6.5-6.5-2.9-6.5-6.5-6.5z"/><path class="st7" d="M80.4 159.5c-2.1 0-3.7 1.7-3.7 3.7 0 2.1 1.7 3.7 3.7 3.7 2.1 0 3.8-1.7 3.8-3.7-.1-2.1-1.8-3.7-3.8-3.7zM178.2 159.5c-2.1 0-3.7 1.7-3.7 3.7 0 2.1 1.7 3.7 3.7 3.7 2.1 0 3.8-1.7 3.8-3.7-.1-2.1-1.7-3.7-3.8-3.7z"/><path class="st3" d="M35.1 126.4h4.6c.9 0 1.6.7 1.6 1.6v11.1c0 .9-.7 1.6-1.6 1.6h-4.6M65 160v-31.5c0-1.2-.9-2.3-1.9-2.3H47.4c-1 0-1.9 1-1.9 2.3V160H65z"/><path class="st7" d="M55.3 126.3V160"/><path class="st3" d="M209.3 160.1v-31.5c0-1.2-.9-2.3-1.9-2.3h-15.7c-1 0-1.9 1-1.9 2.3v31.5h19.5z"/><path class="st7" d="M199.6 126.4V160"/><path class="st3" d="M137.4 160.1v-31.5c0-1.2-.9-2.3-1.9-2.3h-15.7c-1 0-1.9 1-1.9 2.3v31.5h19.5z"/><path class="st7" d="M127.6 126.4V160"/><path class="st3" d="M224.3 145.3h-6c-.9 0-1.6-.9-1.6-2.1v-14.7c0-1.2.7-2.1 1.6-2.1h4.6M179.9 141.9h-32.4c-1.6 0-2.9-1.3-2.9-2.9v-9.9c0-1.5 1.2-2.8 2.8-2.8h32.5c1.6 0 2.9 1.3 2.9 2.9v9.8c0 1.6-1.3 2.9-2.9 2.9zM107.8 141.9H75.3c-1.6 0-2.9-1.3-2.9-2.9v-9.9c0-1.5 1.2-2.8 2.8-2.8h32.5c1.6 0 2.9 1.3 2.9 2.9v9.8c.1 1.6-1.2 2.9-2.8 2.9z"/><path class="st0 window" d="M182.8 136.2v2.8c0 1.6-1.3 2.9-2.9 2.9h-32.4c-1.6 0-2.9-1.3-2.9-2.9v-2.9M110.7 136.2v2.8c0 1.6-1.3 2.9-2.9 2.9H75.3c-1.6 0-2.9-1.3-2.9-2.9v-2.9"/><path class="st7" d="M216.7 132.9h6.5"/><path class="st6" d="M225.5 128.7h2.8v11.5h-2.8z"/><path class="st7" d="M219.8 129.3h5.7"/><path class="st19" d="M36.7 162.4L34 161v-6.3h2.7zM142.4 147h40.8v2.4h-40.8zM69.9 147h40.8v2.4H69.9z"/></g><g><path class="st7" d="M225 158l-1.4-32.1c0-2.7-1.3-4.5-3.3-4.5H44.9c-7.6 0-9.4-.3-9.4 7.3L34 160.4c0 .9.7 1.6 1.6 1.6l7.5 2.8h27.6c-.1-.5-.1-1-.1-1.6 0-5.3 4.3-9.7 9.7-9.7 5.3 0 9.7 4.3 9.7 9.7 0 .5-.1 1.1-.1 1.6h78.6c-.1-.5-.1-1-.1-1.6 0-5.3 4.3-9.7 9.7-9.7 5.3 0 9.7 4.3 9.7 9.7 0 .5-.1 1.1-.1 1.6h35.8c.9 0 1.6-.7 1.6-1.6v-5.8.6z"/></g><path class="st7" d="M129.5 106.8v14.4"/></g><ellipse id="circulo" class="st7" cx="130.6" cy="113.4" rx="100.1" ry="100.1"/></svg>